<svg width="65" height="65" viewBox="0 0 65 65" fill="none" xmlns="http://www.w3.org/2000/svg">
<path d="M24 29C24 28.4477 24.4477 28 25 28H41C41.5523 28 42 28.4477 42 29V42C42 42.5523 41.5523 43 41 43H25C24.4477 43 24 42.5523 24 42V29Z" fill="#F7EFE6"/>
<path d="M48.971 43.7561C49.6712 43.1501 49.2426 42 48.3165 42H17.5772C16.6644 42 16.2288 43.1226 16.9027 43.7383L31.8569 57.4002C32.2313 57.7422 32.8024 57.7499 33.1858 57.4181L48.971 43.7561Z" fill="#F7EFE6"/>
<path d="M13.7219 21.8753C13.7219 20.676 12.794 19.7293 11.3714 19.7293C9.92788 19.7293 9 20.676 9 21.8753C9 23.0743 9.92788 24 11.3714 24C12.794 24 13.7219 23.0743 13.7219 21.8753ZM15.0371 23.8316H20.0066L22.0479 14.7433L24.048 23.8316H29.0175L32.5848 9H28.2133L26.5224 19.0562L24.2956 9H19.8622L17.5734 19.1402L15.8826 9H11.5111L15.0371 23.8316ZM40.7745 23.8316H45.0428L39.7641 9H35.1041L29.8047 23.8316H34.0523L34.836 21.4123H39.991L40.7745 23.8316ZM38.9806 18.2567H35.8669L37.4134 13.4601L38.9806 18.2567ZM49.4118 19.7083L46.1127 9H41.7823L46.8137 23.8316H51.9894L57 9H52.6903L49.4118 19.7083Z" fill="#F7EFE6"/>
</svg>
