<svg width="24" height="24" viewBox="0 0 24 24" fill="none" xmlns="http://www.w3.org/2000/svg">
<g clip-path="url(#clip0_1_224)">
<path d="M12 24C18.6274 24 24 18.6274 24 12C24 5.37258 18.6274 0 12 0C5.37258 0 0 5.37258 0 12C0 18.6274 5.37258 24 12 24Z" fill="#576B68"/>
<path d="M14.5285 12.5303C14.8214 12.2374 14.8214 11.7626 14.5285 11.4697C14.2356 11.1768 13.7608 11.1768 13.4679 11.4697L14.5285 12.5303ZM10.9982 15L10.4679 14.4697L9.9375 15L10.4679 15.5303L10.9982 15ZM13.4679 18.5303C13.7608 18.8232 14.2356 18.8232 14.5285 18.5303C14.8214 18.2374 14.8214 17.7626 14.5285 17.4697L13.4679 18.5303ZM13.4679 11.4697L10.4679 14.4697L11.5285 15.5303L14.5285 12.5303L13.4679 11.4697ZM10.4679 15.5303L13.4679 18.5303L14.5285 17.4697L11.5285 14.4697L10.4679 15.5303Z" fill="white"/>
<path d="M5.93783 13.25C5.16736 12.5828 4.85876 11.807 5.0599 11.0432C5.26103 10.2793 5.96065 9.56994 7.05026 9.02514C8.13987 8.48033 9.55857 8.13051 11.0863 8.02994C12.6141 7.92938 14.1655 8.08369 15.5 8.46892C16.8345 8.85416 17.8775 9.44879 18.4672 10.1606C19.0568 10.8724 19.1603 11.6617 18.7615 12.4059C18.3627 13.1501 17.4838 13.8077 16.2613 14.2767C15.0388 14.7458 13.5409 15 12 15" stroke="white" stroke-width="1.5" stroke-linecap="round"/>
</g>
<defs>
<clipPath id="clip0_1_224">
<rect width="24" height="24" fill="white"/>
</clipPath>
</defs>
</svg>
