<svg width="24" height="24" viewBox="0 0 24 24" fill="none" xmlns="http://www.w3.org/2000/svg">
<g clip-path="url(#clip0_1_218)">
<path d="M12 24C18.6274 24 24 18.6274 24 12C24 5.37258 18.6274 0 12 0C5.37258 0 0 5.37258 0 12C0 18.6274 5.37258 24 12 24Z" fill="#576B68"/>
<path d="M10.4357 18.0009H13.5717V9.02494H10.4357V18.0009ZM12.0197 8.19294C13.1237 8.19294 13.8437 7.48894 13.8437 6.59294C13.8437 5.68094 13.1237 4.96094 12.0197 4.96094C10.8997 4.96094 10.1797 5.68094 10.1797 6.59294C10.1797 7.48894 10.8997 8.19294 12.0197 8.19294Z" fill="white"/>
</g>
<defs>
<clipPath id="clip0_1_218">
<rect width="24" height="24" fill="white"/>
</clipPath>
</defs>
</svg>
