<svg width="65" height="65" viewBox="0 0 65 65" fill="none" xmlns="http://www.w3.org/2000/svg">
<path d="M42.0759 28.8304V24.9635C42.0759 20.0133 38.0723 16 33.1333 16C28.1943 16 24.1908 20.0133 24.1908 24.9635V28.8304H21V48.1401H45.2668V28.8304H42.0759ZM34.266 39.4555L34.6031 42.9445H31.6634L32.0004 39.4542C31.0034 39.0173 30.3069 38.0201 30.3066 36.8596C30.3066 35.2944 31.5722 34.026 33.1334 34.0247C34.6944 34.026 35.9599 35.2944 35.9601 36.8596C35.9599 38.0201 35.2632 39.0173 34.266 39.4555ZM37.2243 28.8304H29.0426V24.9635C29.0426 22.703 30.8777 20.8641 33.1333 20.8641C35.389 20.8641 37.2243 22.703 37.2243 24.9635V28.8304Z" fill="black"/>
<path d="M37.524 31.582H23.9219V45.2171H37.524V31.582Z" fill="black"/>
<path d="M29.75 32.5547H36.5511V38.398H29.75V32.5547Z" fill="black"/>
<path d="M40.4332 38.4023H25.8594L32.9494 45.2197L40.4332 38.4023Z" fill="black"/>
<path d="M64.5 0.5H0.5V64.5H64.5V0.5Z" stroke="black"/>
</svg>
