<svg width="65" height="65" viewBox="0 0 65 65" fill="none" xmlns="http://www.w3.org/2000/svg">
<path d="M46.2663 27.1617V21.3866C46.2663 13.9937 40.3269 8 32.9999 8C25.6728 8 19.7336 13.9937 19.7336 21.3866V27.1617H15V56H51V27.1617H46.2663ZM34.6802 43.0299L35.1803 48.2406H30.8192L31.3192 43.0279C29.8401 42.3755 28.8069 40.8862 28.8064 39.153C28.8064 36.8154 30.6839 34.9211 33 34.9192C35.3158 34.9211 37.1931 36.8154 37.1934 39.153C37.1931 40.8862 36.1596 42.3755 34.6802 43.0299ZM39.0689 27.1617H26.9313V21.3866C26.9313 18.0107 29.6537 15.2643 32.9999 15.2643C36.3462 15.2643 39.0689 18.0107 39.0689 21.3866V27.1617Z" fill="#F7EFE6"/>
<path d="M37.524 31.582H23.9219V45.2171H37.524V31.582Z" fill="white"/>
<path d="M29 36H37V43H29V36Z" fill="#576B68"/>
<path d="M42 43H24L32.7568 51L42 43Z" fill="#576B68"/>
</svg>
