<svg width="150" height="64" viewBox="0 0 150 64" fill="none" xmlns="http://www.w3.org/2000/svg">
<rect x="150" y="64.0001" width="150" height="64" transform="rotate(-180 150 64.0001)" fill="url(#paint0_linear_510_5438)"/>
<rect x="148" y="62.0001" width="146" height="60" transform="rotate(-180 148 62.0001)" fill="black"/>
<path d="M48.9585 33.4201C49.4652 33.4201 49.9052 33.3568 50.2785 33.2301C50.6585 33.1034 50.9685 32.9301 51.2085 32.7101C51.4552 32.4834 51.6385 32.2168 51.7585 31.9101C51.8785 31.6034 51.9385 31.2668 51.9385 30.9001C51.9385 30.1668 51.6952 29.6034 51.2085 29.2101C50.7285 28.8168 49.9918 28.6201 48.9985 28.6201H47.2785V33.4201H48.9585ZM55.8785 41.0001H53.4485C52.9885 41.0001 52.6552 40.8201 52.4485 40.4601L49.4085 35.8301C49.2952 35.6568 49.1685 35.5334 49.0285 35.4601C48.8952 35.3868 48.6952 35.3501 48.4285 35.3501H47.2785V41.0001H44.5885V26.5401H48.9985C49.9785 26.5401 50.8185 26.6434 51.5185 26.8501C52.2252 27.0501 52.8018 27.3334 53.2485 27.7001C53.7018 28.0668 54.0352 28.5068 54.2485 29.0201C54.4618 29.5268 54.5685 30.0868 54.5685 30.7001C54.5685 31.1868 54.4952 31.6468 54.3485 32.0801C54.2085 32.5134 54.0018 32.9068 53.7285 33.2601C53.4618 33.6134 53.1285 33.9234 52.7285 34.1901C52.3352 34.4568 51.8852 34.6668 51.3785 34.8201C51.5518 34.9201 51.7118 35.0401 51.8585 35.1801C52.0052 35.3134 52.1385 35.4734 52.2585 35.6601L55.8785 41.0001ZM65.0801 35.5401L63.3201 30.7301C63.2334 30.5168 63.1434 30.2634 63.0501 29.9701C62.9567 29.6768 62.8634 29.3601 62.7701 29.0201C62.6834 29.3601 62.5934 29.6801 62.5001 29.9801C62.4067 30.2734 62.3167 30.5301 62.2301 30.7501L60.4801 35.5401H65.0801ZM69.8301 41.0001H67.7501C67.5167 41.0001 67.3267 40.9434 67.1801 40.8301C67.0334 40.7101 66.9234 40.5634 66.8501 40.3901L65.7701 37.4401H59.7801L58.7001 40.3901C58.6467 40.5434 58.5434 40.6834 58.3901 40.8101C58.2367 40.9368 58.0467 41.0001 57.8201 41.0001H55.7201L61.4101 26.5401H64.1501L69.8301 41.0001ZM84.1668 33.7701C84.1668 34.8301 83.9901 35.8034 83.6368 36.6901C83.2835 37.5768 82.7868 38.3401 82.1468 38.9801C81.5068 39.6201 80.7368 40.1168 79.8368 40.4701C78.9368 40.8234 77.9368 41.0001 76.8368 41.0001H71.3268V26.5401H76.8368C77.9368 26.5401 78.9368 26.7201 79.8368 27.0801C80.7368 27.4334 81.5068 27.9301 82.1468 28.5701C82.7868 29.2034 83.2835 29.9634 83.6368 30.8501C83.9901 31.7368 84.1668 32.7101 84.1668 33.7701ZM81.4068 33.7701C81.4068 32.9768 81.3001 32.2668 81.0868 31.6401C80.8801 31.0068 80.5768 30.4734 80.1768 30.0401C79.7835 29.6001 79.3035 29.2634 78.7368 29.0301C78.1768 28.7968 77.5435 28.6801 76.8368 28.6801H74.0268V38.8601H76.8368C77.5435 38.8601 78.1768 38.7434 78.7368 38.5101C79.3035 38.2768 79.7835 37.9434 80.1768 37.5101C80.5768 37.0701 80.8801 36.5368 81.0868 35.9101C81.3001 35.2768 81.4068 34.5634 81.4068 33.7701ZM89.2416 41.0001H86.5416V26.5401H89.2416V41.0001ZM106.269 33.7701C106.269 34.8301 106.092 35.8134 105.739 36.7201C105.392 37.6201 104.899 38.4001 104.259 39.0601C103.619 39.7201 102.849 40.2368 101.949 40.6101C101.049 40.9768 100.049 41.1601 98.9491 41.1601C97.8558 41.1601 96.8591 40.9768 95.9591 40.6101C95.0591 40.2368 94.2858 39.7201 93.6391 39.0601C92.9991 38.4001 92.5025 37.6201 92.1491 36.7201C91.7958 35.8134 91.6191 34.8301 91.6191 33.7701C91.6191 32.7101 91.7958 31.7301 92.1491 30.8301C92.5025 29.9234 92.9991 29.1401 93.6391 28.4801C94.2858 27.8201 95.0591 27.3068 95.9591 26.9401C96.8591 26.5668 97.8558 26.3801 98.9491 26.3801C99.6825 26.3801 100.372 26.4668 101.019 26.6401C101.666 26.8068 102.259 27.0468 102.799 27.3601C103.339 27.6668 103.822 28.0434 104.249 28.4901C104.682 28.9301 105.049 29.4234 105.349 29.9701C105.649 30.5168 105.876 31.1101 106.029 31.7501C106.189 32.3901 106.269 33.0634 106.269 33.7701ZM103.519 33.7701C103.519 32.9768 103.412 32.2668 103.199 31.6401C102.986 31.0068 102.682 30.4701 102.289 30.0301C101.896 29.5901 101.416 29.2534 100.849 29.0201C100.289 28.7868 99.6558 28.6701 98.9491 28.6701C98.2425 28.6701 97.6058 28.7868 97.0391 29.0201C96.4791 29.2534 95.9991 29.5901 95.5991 30.0301C95.2058 30.4701 94.9025 31.0068 94.6891 31.6401C94.4758 32.2668 94.3691 32.9768 94.3691 33.7701C94.3691 34.5634 94.4758 35.2768 94.6891 35.9101C94.9025 36.5368 95.2058 37.0701 95.5991 37.5101C95.9991 37.9434 96.4791 38.2768 97.0391 38.5101C97.6058 38.7434 98.2425 38.8601 98.9491 38.8601C99.6558 38.8601 100.289 38.7434 100.849 38.5101C101.416 38.2768 101.896 37.9434 102.289 37.5101C102.682 37.0701 102.986 36.5368 103.199 35.9101C103.412 35.2768 103.519 34.5634 103.519 33.7701Z" fill="white"/>
<defs>
<linearGradient id="paint0_linear_510_5438" x1="274.432" y1="120.727" x2="245.677" y2="45.3368" gradientUnits="userSpaceOnUse">
<stop stop-color="#656565"/>
<stop offset="1" stop-color="#010C12"/>
</linearGradient>
</defs>
</svg>
