<svg width="150" height="64" viewBox="0 0 150 64" fill="none" xmlns="http://www.w3.org/2000/svg">
<rect x="150" y="64.0001" width="150" height="64" transform="rotate(-180 150 64.0001)" fill="url(#paint0_linear_510_5436)"/>
<rect x="148" y="62.0001" width="146" height="60" transform="rotate(-180 148 62.0001)" fill="black"/>
<path d="M50.566 33.7701C50.566 34.8301 50.3893 35.8134 50.036 36.7201C49.6893 37.6201 49.196 38.4001 48.556 39.0601C47.916 39.7201 47.146 40.2368 46.246 40.6101C45.346 40.9768 44.346 41.1601 43.246 41.1601C42.1527 41.1601 41.156 40.9768 40.256 40.6101C39.356 40.2368 38.5827 39.7201 37.936 39.0601C37.296 38.4001 36.7993 37.6201 36.446 36.7201C36.0927 35.8134 35.916 34.8301 35.916 33.7701C35.916 32.7101 36.0927 31.7301 36.446 30.8301C36.7993 29.9234 37.296 29.1401 37.936 28.4801C38.5827 27.8201 39.356 27.3068 40.256 26.9401C41.156 26.5668 42.1527 26.3801 43.246 26.3801C43.9793 26.3801 44.6693 26.4668 45.316 26.6401C45.9627 26.8068 46.556 27.0468 47.096 27.3601C47.636 27.6668 48.1193 28.0434 48.546 28.4901C48.9793 28.9301 49.346 29.4234 49.646 29.9701C49.946 30.5168 50.1727 31.1101 50.326 31.7501C50.486 32.3901 50.566 33.0634 50.566 33.7701ZM47.816 33.7701C47.816 32.9768 47.7093 32.2668 47.496 31.6401C47.2827 31.0068 46.9793 30.4701 46.586 30.0301C46.1927 29.5901 45.7127 29.2534 45.146 29.0201C44.586 28.7868 43.9527 28.6701 43.246 28.6701C42.5393 28.6701 41.9027 28.7868 41.336 29.0201C40.776 29.2534 40.296 29.5901 39.896 30.0301C39.5027 30.4701 39.1993 31.0068 38.986 31.6401C38.7727 32.2668 38.666 32.9768 38.666 33.7701C38.666 34.5634 38.7727 35.2768 38.986 35.9101C39.1993 36.5368 39.5027 37.0701 39.896 37.5101C40.296 37.9434 40.776 38.2768 41.336 38.5101C41.9027 38.7434 42.5393 38.8601 43.246 38.8601C43.9527 38.8601 44.586 38.7434 45.146 38.5101C45.7127 38.2768 46.1927 37.9434 46.586 37.5101C46.9793 37.0701 47.2827 36.5368 47.496 35.9101C47.7093 35.2768 47.816 34.5634 47.816 33.7701ZM57.2984 33.4201C57.805 33.4201 58.245 33.3568 58.6184 33.2301C58.9984 33.1034 59.3084 32.9301 59.5484 32.7101C59.795 32.4834 59.9784 32.2168 60.0984 31.9101C60.2184 31.6034 60.2784 31.2668 60.2784 30.9001C60.2784 30.1668 60.035 29.6034 59.5484 29.2101C59.0684 28.8168 58.3317 28.6201 57.3384 28.6201H55.6184V33.4201H57.2984ZM64.2184 41.0001H61.7884C61.3284 41.0001 60.995 40.8201 60.7884 40.4601L57.7484 35.8301C57.635 35.6568 57.5084 35.5334 57.3684 35.4601C57.235 35.3868 57.035 35.3501 56.7684 35.3501H55.6184V41.0001H52.9284V26.5401H57.3384C58.3184 26.5401 59.1584 26.6434 59.8584 26.8501C60.565 27.0501 61.1417 27.3334 61.5884 27.7001C62.0417 28.0668 62.375 28.5068 62.5884 29.0201C62.8017 29.5268 62.9084 30.0868 62.9084 30.7001C62.9084 31.1868 62.835 31.6468 62.6884 32.0801C62.5484 32.5134 62.3417 32.9068 62.0684 33.2601C61.8017 33.6134 61.4684 33.9234 61.0684 34.1901C60.675 34.4568 60.225 34.6668 59.7184 34.8201C59.8917 34.9201 60.0517 35.0401 60.1984 35.1801C60.345 35.3134 60.4784 35.4734 60.5984 35.6601L64.2184 41.0001ZM68.4799 41.0001H65.7799V26.5401H68.4799V41.0001ZM83.6374 33.7501V39.6001C82.9041 40.1401 82.1208 40.5368 81.2874 40.7901C80.4608 41.0368 79.5741 41.1601 78.6274 41.1601C77.4474 41.1601 76.3774 40.9768 75.4174 40.6101C74.4641 40.2434 73.6474 39.7334 72.9674 39.0801C72.2941 38.4268 71.7741 37.6468 71.4074 36.7401C71.0408 35.8334 70.8574 34.8434 70.8574 33.7701C70.8574 32.6834 71.0341 31.6868 71.3874 30.7801C71.7408 29.8734 72.2408 29.0934 72.8874 28.4401C73.5408 27.7868 74.3308 27.2801 75.2574 26.9201C76.1841 26.5601 77.2241 26.3801 78.3774 26.3801C78.9641 26.3801 79.5108 26.4268 80.0174 26.5201C80.5308 26.6134 81.0041 26.7434 81.4374 26.9101C81.8774 27.0701 82.2774 27.2668 82.6374 27.5001C82.9974 27.7334 83.3274 27.9901 83.6274 28.2701L82.8574 29.4901C82.7374 29.6834 82.5808 29.8034 82.3874 29.8501C82.1941 29.8901 81.9841 29.8401 81.7574 29.7001C81.5374 29.5734 81.3174 29.4468 81.0974 29.3201C80.8774 29.1934 80.6308 29.0834 80.3574 28.9901C80.0908 28.8968 79.7874 28.8201 79.4474 28.7601C79.1141 28.7001 78.7274 28.6701 78.2874 28.6701C77.5741 28.6701 76.9274 28.7901 76.3474 29.0301C75.7741 29.2701 75.2841 29.6134 74.8774 30.0601C74.4708 30.5068 74.1574 31.0434 73.9374 31.6701C73.7174 32.2968 73.6074 32.9968 73.6074 33.7701C73.6074 34.5968 73.7241 35.3368 73.9574 35.9901C74.1974 36.6368 74.5308 37.1868 74.9574 37.6401C75.3908 38.0868 75.9108 38.4301 76.5174 38.6701C77.1241 38.9034 77.8008 39.0201 78.5474 39.0201C79.0808 39.0201 79.5574 38.9634 79.9774 38.8501C80.3974 38.7368 80.8074 38.5834 81.2074 38.3901V35.7701H79.3874C79.2141 35.7701 79.0774 35.7234 78.9774 35.6301C78.8841 35.5301 78.8374 35.4101 78.8374 35.2701V33.7501H83.6374ZM88.9291 41.0001H86.2291V26.5401H88.9291V41.0001ZM99.8066 35.5401L98.0466 30.7301C97.96 30.5168 97.87 30.2634 97.7766 29.9701C97.6833 29.6768 97.59 29.3601 97.4966 29.0201C97.41 29.3601 97.32 29.6801 97.2266 29.9801C97.1333 30.2734 97.0433 30.5301 96.9566 30.7501L95.2066 35.5401H99.8066ZM104.557 41.0001H102.477C102.243 41.0001 102.053 40.9434 101.907 40.8301C101.76 40.7101 101.65 40.5634 101.577 40.3901L100.497 37.4401H94.5066L93.4266 40.3901C93.3733 40.5434 93.27 40.6834 93.1166 40.8101C92.9633 40.9368 92.7733 41.0001 92.5466 41.0001H90.4466L96.1366 26.5401H98.8766L104.557 41.0001ZM114.523 38.7801V41.0001H106.053V26.5401H108.743V38.7801H114.523Z" fill="white"/>
<defs>
<linearGradient id="paint0_linear_510_5436" x1="274.432" y1="120.727" x2="245.677" y2="45.3368" gradientUnits="userSpaceOnUse">
<stop stop-color="#656565"/>
<stop offset="1" stop-color="#010C12"/>
</linearGradient>
</defs>
</svg>
