<svg width="150" height="64" viewBox="0 0 150 64" fill="none" xmlns="http://www.w3.org/2000/svg">
<path d="M60.3575 27.5299C60.3575 27.8366 60.2708 28.1166 60.0975 28.3699L52.6775 38.8499H60.1875V40.9999H49.1875V39.9399C49.1875 39.8066 49.2108 39.6799 49.2575 39.5599C49.3041 39.4332 49.3641 39.3166 49.4375 39.2099L56.8775 28.6799H49.6575V26.5399H60.3575V27.5299ZM65.2068 28.6799V32.6899H70.2668V34.7599H65.2068V38.8499H71.6268V40.9999H62.5068V26.5399H71.6268V28.6799H65.2068ZM78.3807 33.4199C78.8874 33.4199 79.3274 33.3566 79.7007 33.2299C80.0807 33.1032 80.3907 32.9299 80.6307 32.7099C80.8774 32.4832 81.0607 32.2166 81.1807 31.9099C81.3007 31.6032 81.3607 31.2666 81.3607 30.8999C81.3607 30.1666 81.1174 29.6032 80.6307 29.2099C80.1507 28.8166 79.4141 28.6199 78.4207 28.6199H76.7007V33.4199H78.3807ZM85.3007 40.9999H82.8707C82.4107 40.9999 82.0774 40.8199 81.8707 40.4599L78.8307 35.8299C78.7174 35.6566 78.5907 35.5332 78.4507 35.4599C78.3174 35.3866 78.1174 35.3499 77.8507 35.3499H76.7007V40.9999H74.0107V26.5399H78.4207C79.4007 26.5399 80.2407 26.6432 80.9407 26.8499C81.6474 27.0499 82.2241 27.3332 82.6707 27.6999C83.1241 28.0666 83.4574 28.5066 83.6707 29.0199C83.8841 29.5266 83.9907 30.0866 83.9907 30.6999C83.9907 31.1866 83.9174 31.6466 83.7707 32.0799C83.6307 32.5132 83.4241 32.9066 83.1507 33.2599C82.8841 33.6132 82.5507 33.9232 82.1507 34.1899C81.7574 34.4566 81.3074 34.6666 80.8007 34.8199C80.9741 34.9199 81.1341 35.0399 81.2807 35.1799C81.4274 35.3132 81.5607 35.4732 81.6807 35.6599L85.3007 40.9999ZM100.457 33.7699C100.457 34.8299 100.28 35.8132 99.927 36.7199C99.5803 37.6199 99.087 38.3999 98.447 39.0599C97.807 39.7199 97.037 40.2366 96.137 40.6099C95.237 40.9766 94.237 41.1599 93.137 41.1599C92.0437 41.1599 91.047 40.9766 90.147 40.6099C89.247 40.2366 88.4737 39.7199 87.827 39.0599C87.187 38.3999 86.6903 37.6199 86.337 36.7199C85.9837 35.8132 85.807 34.8299 85.807 33.7699C85.807 32.7099 85.9837 31.7299 86.337 30.8299C86.6903 29.9232 87.187 29.1399 87.827 28.4799C88.4737 27.8199 89.247 27.3066 90.147 26.9399C91.047 26.5666 92.0437 26.3799 93.137 26.3799C93.8703 26.3799 94.5603 26.4666 95.207 26.6399C95.8537 26.8066 96.447 27.0466 96.987 27.3599C97.527 27.6666 98.0103 28.0432 98.437 28.4899C98.8703 28.9299 99.237 29.4232 99.537 29.9699C99.837 30.5166 100.063 31.1099 100.217 31.7499C100.377 32.3899 100.457 33.0632 100.457 33.7699ZM97.707 33.7699C97.707 32.9766 97.6003 32.2666 97.387 31.6399C97.1737 31.0066 96.8703 30.4699 96.477 30.0299C96.0837 29.5899 95.6037 29.2532 95.037 29.0199C94.477 28.7866 93.8437 28.6699 93.137 28.6699C92.4303 28.6699 91.7937 28.7866 91.227 29.0199C90.667 29.2532 90.187 29.5899 89.787 30.0299C89.3937 30.4699 89.0903 31.0066 88.877 31.6399C88.6637 32.2666 88.557 32.9766 88.557 33.7699C88.557 34.5632 88.6637 35.2766 88.877 35.9099C89.0903 36.5366 89.3937 37.0699 89.787 37.5099C90.187 37.9432 90.667 38.2766 91.227 38.5099C91.7937 38.7432 92.4303 38.8599 93.137 38.8599C93.8437 38.8599 94.477 38.7432 95.037 38.5099C95.6037 38.2766 96.0837 37.9432 96.477 37.5099C96.8703 37.0699 97.1737 36.5366 97.387 35.9099C97.6003 35.2766 97.707 34.5632 97.707 33.7699Z" fill="black"/>
</svg>
