<svg width="150" height="64" viewBox="0 0 150 64" fill="none" xmlns="http://www.w3.org/2000/svg">
<path d="M67.84 33.77C67.84 34.83 67.6633 35.8033 67.31 36.69C66.9566 37.5767 66.46 38.34 65.82 38.98C65.18 39.62 64.41 40.1167 63.51 40.47C62.61 40.8233 61.61 41 60.51 41H55V26.54H60.51C61.61 26.54 62.61 26.72 63.51 27.08C64.41 27.4333 65.18 27.93 65.82 28.57C66.46 29.2033 66.9566 29.9633 67.31 30.85C67.6633 31.7367 67.84 32.71 67.84 33.77ZM65.08 33.77C65.08 32.9767 64.9733 32.2667 64.76 31.64C64.5533 31.0067 64.25 30.4733 63.85 30.04C63.4566 29.6 62.9766 29.2633 62.41 29.03C61.85 28.7967 61.2166 28.68 60.51 28.68H57.7V38.86H60.51C61.2166 38.86 61.85 38.7433 62.41 38.51C62.9766 38.2767 63.4566 37.9433 63.85 37.51C64.25 37.07 64.5533 36.5367 64.76 35.91C64.9733 35.2767 65.08 34.5633 65.08 33.77ZM76.0348 38.83C76.5548 38.83 77.0181 38.7433 77.4248 38.57C77.8381 38.3967 78.1848 38.1533 78.4648 37.84C78.7448 37.5267 78.9581 37.1467 79.1048 36.7C79.2581 36.2533 79.3348 35.7533 79.3348 35.2V26.54H82.0248V35.2C82.0248 36.06 81.8848 36.8567 81.6048 37.59C81.3315 38.3167 80.9348 38.9467 80.4148 39.48C79.9015 40.0067 79.2748 40.42 78.5348 40.72C77.7948 41.0133 76.9615 41.16 76.0348 41.16C75.1015 41.16 74.2648 41.0133 73.5248 40.72C72.7848 40.42 72.1548 40.0067 71.6348 39.48C71.1215 38.9467 70.7248 38.3167 70.4448 37.59C70.1715 36.8567 70.0348 36.06 70.0348 35.2V26.54H72.7248V35.19C72.7248 35.7433 72.7981 36.2433 72.9448 36.69C73.0981 37.1367 73.3148 37.52 73.5948 37.84C73.8815 38.1533 74.2281 38.3967 74.6348 38.57C75.0481 38.7433 75.5148 38.83 76.0348 38.83ZM90.4686 38.9C90.9686 38.9 91.3886 38.84 91.7286 38.72C92.0686 38.6 92.3386 38.44 92.5386 38.24C92.7452 38.04 92.8919 37.8067 92.9786 37.54C93.0719 37.2733 93.1186 36.99 93.1186 36.69C93.1186 36.3767 93.0686 36.0967 92.9686 35.85C92.8686 35.5967 92.7119 35.3833 92.4986 35.21C92.2852 35.03 92.0086 34.8933 91.6686 34.8C91.3352 34.7067 90.9319 34.66 90.4586 34.66H87.7486V38.9H90.4686ZM87.7486 28.62V32.8H89.8886C90.8086 32.8 91.5019 32.6333 91.9686 32.3C92.4419 31.9667 92.6786 31.4367 92.6786 30.71C92.6786 29.9567 92.4652 29.42 92.0386 29.1C91.6119 28.78 90.9452 28.62 90.0386 28.62H87.7486ZM90.0386 26.54C90.9852 26.54 91.7952 26.63 92.4686 26.81C93.1419 26.99 93.6919 27.2467 94.1186 27.58C94.5519 27.9133 94.8686 28.3167 95.0686 28.79C95.2686 29.2633 95.3686 29.7967 95.3686 30.39C95.3686 30.73 95.3186 31.0567 95.2186 31.37C95.1186 31.6767 94.9619 31.9667 94.7486 32.24C94.5419 32.5067 94.2752 32.75 93.9486 32.97C93.6286 33.19 93.2452 33.3767 92.7986 33.53C94.7852 33.9767 95.7786 35.05 95.7786 36.75C95.7786 37.3633 95.6619 37.93 95.4286 38.45C95.1952 38.97 94.8552 39.42 94.4086 39.8C93.9619 40.1733 93.4119 40.4667 92.7586 40.68C92.1052 40.8933 91.3586 41 90.5186 41H85.0586V26.54H90.0386Z" fill="black" fill-opacity="0.5"/>
</svg>
