<svg width="150" height="64" viewBox="0 0 150 64" fill="none" xmlns="http://www.w3.org/2000/svg">
<g clip-path="url(#clip0_1_192)">
<mask id="mask0_1_192" style="mask-type:luminance" maskUnits="userSpaceOnUse" x="0" y="0" width="150" height="64">
<path d="M150 0H0V64H150V0Z" fill="white"/>
</mask>
<g mask="url(#mask0_1_192)">
<path d="M42.8609 33.7699C42.8609 34.8299 42.6843 35.8132 42.3309 36.7199C41.9843 37.6199 41.4909 38.3999 40.8509 39.0599C40.2109 39.7199 39.4409 40.2366 38.5409 40.6099C37.6409 40.9766 36.6409 41.1599 35.5409 41.1599C34.4476 41.1599 33.4509 40.9766 32.5509 40.6099C31.6509 40.2366 30.8776 39.7199 30.2309 39.0599C29.5909 38.3999 29.0943 37.6199 28.7409 36.7199C28.3876 35.8132 28.2109 34.8299 28.2109 33.7699C28.2109 32.7099 28.3876 31.7299 28.7409 30.8299C29.0943 29.9232 29.5909 29.1399 30.2309 28.4799C30.8776 27.8199 31.6509 27.3066 32.5509 26.9399C33.4509 26.5666 34.4476 26.3799 35.5409 26.3799C36.2743 26.3799 36.9643 26.4666 37.6109 26.6399C38.2576 26.8066 38.8509 27.0466 39.3909 27.3599C39.9309 27.6666 40.4143 28.0432 40.8409 28.4899C41.2743 28.9299 41.6409 29.4232 41.9409 29.9699C42.2409 30.5166 42.4676 31.1099 42.6209 31.7499C42.7809 32.3899 42.8609 33.0632 42.8609 33.7699ZM40.1109 33.7699C40.1109 32.9766 40.0043 32.2666 39.7909 31.6399C39.5776 31.0066 39.2743 30.4699 38.8809 30.0299C38.4876 29.5899 38.0076 29.2532 37.4409 29.0199C36.8809 28.7866 36.2476 28.6699 35.5409 28.6699C34.8343 28.6699 34.1976 28.7866 33.6309 29.0199C33.0709 29.2532 32.5909 29.5899 32.1909 30.0299C31.7976 30.4699 31.4943 31.0066 31.2809 31.6399C31.0676 32.2666 30.9609 32.9766 30.9609 33.7699C30.9609 34.5632 31.0676 35.2766 31.2809 35.9099C31.4943 36.5366 31.7976 37.0699 32.1909 37.5099C32.5909 37.9432 33.0709 38.2766 33.6309 38.5099C34.1976 38.7432 34.8343 38.8599 35.5409 38.8599C36.2476 38.8599 36.8809 38.7432 37.4409 38.5099C38.0076 38.2766 38.4876 37.9432 38.8809 37.5099C39.2743 37.0699 39.5776 36.5366 39.7909 35.9099C40.0043 35.2766 40.1109 34.5632 40.1109 33.7699ZM49.5933 33.4199C50.0999 33.4199 50.5399 33.3566 50.9133 33.2299C51.2933 33.1032 51.6033 32.9299 51.8433 32.7099C52.0899 32.4832 52.2733 32.2166 52.3933 31.9099C52.5133 31.6032 52.5733 31.2666 52.5733 30.8999C52.5733 30.1666 52.3299 29.6032 51.8433 29.2099C51.3633 28.8166 50.6266 28.6199 49.6333 28.6199H47.9133V33.4199H49.5933ZM56.5133 40.9999H54.0833C53.6233 40.9999 53.2899 40.8199 53.0833 40.4599L50.0433 35.8299C49.9299 35.6566 49.8033 35.5332 49.6633 35.4599C49.5299 35.3866 49.3299 35.3499 49.0633 35.3499H47.9133V40.9999H45.2233V26.5399H49.6333C50.6133 26.5399 51.4533 26.6432 52.1533 26.8499C52.8599 27.0499 53.4366 27.3332 53.8833 27.6999C54.3366 28.0666 54.6699 28.5066 54.8833 29.0199C55.0966 29.5266 55.2033 30.0866 55.2033 30.6999C55.2033 31.1866 55.1299 31.6466 54.9833 32.0799C54.8433 32.5132 54.6366 32.9066 54.3633 33.2599C54.0966 33.6132 53.7633 33.9232 53.3633 34.1899C52.9699 34.4566 52.5199 34.6666 52.0133 34.8199C52.1866 34.9199 52.3466 35.0399 52.4933 35.1799C52.6399 35.3132 52.7733 35.4732 52.8933 35.6599L56.5133 40.9999ZM60.7748 40.9999H58.0748V26.5399H60.7748V40.9999ZM75.9323 33.7499V39.5999C75.199 40.1399 74.4157 40.5366 73.5823 40.7899C72.7557 41.0366 71.869 41.1599 70.9223 41.1599C69.7423 41.1599 68.6723 40.9766 67.7123 40.6099C66.759 40.2432 65.9423 39.7332 65.2623 39.0799C64.589 38.4266 64.069 37.6466 63.7023 36.7399C63.3357 35.8332 63.1523 34.8432 63.1523 33.7699C63.1523 32.6832 63.329 31.6866 63.6823 30.7799C64.0357 29.8732 64.5357 29.0932 65.1823 28.4399C65.8357 27.7866 66.6257 27.2799 67.5523 26.9199C68.479 26.5599 69.519 26.3799 70.6723 26.3799C71.259 26.3799 71.8057 26.4266 72.3123 26.5199C72.8257 26.6132 73.299 26.7432 73.7323 26.9099C74.1723 27.0699 74.5723 27.2666 74.9323 27.4999C75.2923 27.7332 75.6223 27.9899 75.9223 28.2699L75.1523 29.4899C75.0323 29.6832 74.8757 29.8032 74.6823 29.8499C74.489 29.8899 74.279 29.8399 74.0523 29.6999C73.8323 29.5732 73.6123 29.4466 73.3923 29.3199C73.1723 29.1932 72.9257 29.0832 72.6523 28.9899C72.3857 28.8966 72.0823 28.8199 71.7423 28.7599C71.409 28.6999 71.0223 28.6699 70.5823 28.6699C69.869 28.6699 69.2223 28.7899 68.6423 29.0299C68.069 29.2699 67.579 29.6132 67.1723 30.0599C66.7657 30.5066 66.4523 31.0432 66.2323 31.6699C66.0123 32.2966 65.9023 32.9966 65.9023 33.7699C65.9023 34.5966 66.019 35.3366 66.2523 35.9899C66.4923 36.6366 66.8257 37.1866 67.2523 37.6399C67.6857 38.0866 68.2057 38.4299 68.8123 38.6699C69.419 38.9032 70.0957 39.0199 70.8423 39.0199C71.3757 39.0199 71.8523 38.9632 72.2723 38.8499C72.6923 38.7366 73.1023 38.5832 73.5023 38.3899V35.7699H71.6823C71.509 35.7699 71.3723 35.7232 71.2723 35.6299C71.179 35.5299 71.1323 35.4099 71.1323 35.2699V33.7499H75.9323ZM81.2241 40.9999H78.5241V26.5399H81.2241V40.9999ZM96.6516 26.5399V40.9999H95.2716C95.0582 40.9999 94.8782 40.9666 94.7316 40.8999C94.5916 40.8266 94.4549 40.7066 94.3216 40.5399L86.7716 30.8999C86.8116 31.3399 86.8316 31.7466 86.8316 32.1199V40.9999H84.4616V26.5399H85.8716C85.9849 26.5399 86.0816 26.5466 86.1616 26.5599C86.2482 26.5666 86.3216 26.5866 86.3816 26.6199C86.4482 26.6466 86.5116 26.6899 86.5716 26.7499C86.6316 26.8032 86.6982 26.8766 86.7716 26.9699L94.3516 36.6499C94.3316 36.4166 94.3149 36.1866 94.3016 35.9599C94.2882 35.7332 94.2816 35.5232 94.2816 35.3299V26.5399H96.6516ZM107.512 35.5399L105.752 30.7299C105.665 30.5166 105.575 30.2632 105.482 29.9699C105.388 29.6766 105.295 29.3599 105.202 29.0199C105.115 29.3599 105.025 29.6799 104.932 29.9799C104.838 30.2732 104.748 30.5299 104.662 30.7499L102.912 35.5399H107.512ZM112.262 40.9999H110.182C109.948 40.9999 109.758 40.9432 109.612 40.8299C109.465 40.7099 109.355 40.5632 109.282 40.3899L108.202 37.4399H102.212L101.132 40.3899C101.078 40.5432 100.975 40.6832 100.822 40.8099C100.668 40.9366 100.478 40.9999 100.252 40.9999H98.1517L103.842 26.5399H106.582L112.262 40.9999ZM122.228 38.7799V40.9999H113.758V26.5399H116.448V38.7799H122.228Z" fill="black" fill-opacity="0.5"/>
</g>
</g>
<defs>
<clipPath id="clip0_1_192">
<rect width="150" height="64" fill="white"/>
</clipPath>
</defs>
</svg>
