<svg width="150" height="64" viewBox="0 0 150 64" fill="none" xmlns="http://www.w3.org/2000/svg">
<path d="M48.9598 33.4199C49.4665 33.4199 49.9065 33.3566 50.2798 33.2299C50.6598 33.1032 50.9698 32.9299 51.2098 32.7099C51.4565 32.4832 51.6398 32.2166 51.7598 31.9099C51.8798 31.6032 51.9398 31.2666 51.9398 30.8999C51.9398 30.1666 51.6965 29.6032 51.2098 29.2099C50.7298 28.8166 49.9931 28.6199 48.9998 28.6199H47.2798V33.4199H48.9598ZM55.8798 40.9999H53.4498C52.9898 40.9999 52.6565 40.8199 52.4498 40.4599L49.4098 35.8299C49.2965 35.6566 49.1698 35.5332 49.0298 35.4599C48.8965 35.3866 48.6965 35.3499 48.4298 35.3499H47.2798V40.9999H44.5898V26.5399H48.9998C49.9798 26.5399 50.8198 26.6432 51.5198 26.8499C52.2265 27.0499 52.8031 27.3332 53.2498 27.6999C53.7031 28.0666 54.0365 28.5066 54.2498 29.0199C54.4631 29.5266 54.5698 30.0866 54.5698 30.6999C54.5698 31.1866 54.4965 31.6466 54.3498 32.0799C54.2098 32.5132 54.0031 32.9066 53.7298 33.2599C53.4631 33.6132 53.1298 33.9232 52.7298 34.1899C52.3365 34.4566 51.8865 34.6666 51.3798 34.8199C51.5531 34.9199 51.7131 35.0399 51.8598 35.1799C52.0065 35.3132 52.1398 35.4732 52.2598 35.6599L55.8798 40.9999ZM65.0814 35.5399L63.3214 30.7299C63.2347 30.5166 63.1447 30.2632 63.0514 29.9699C62.958 29.6766 62.8647 29.3599 62.7714 29.0199C62.6847 29.3599 62.5947 29.6799 62.5014 29.9799C62.408 30.2732 62.318 30.5299 62.2314 30.7499L60.4814 35.5399H65.0814ZM69.8314 40.9999H67.7514C67.518 40.9999 67.328 40.9432 67.1814 40.8299C67.0347 40.7099 66.9247 40.5632 66.8514 40.3899L65.7714 37.4399H59.7814L58.7014 40.3899C58.648 40.5432 58.5447 40.6832 58.3914 40.8099C58.238 40.9366 58.048 40.9999 57.8214 40.9999H55.7214L61.4114 26.5399H64.1514L69.8314 40.9999ZM84.1681 33.7699C84.1681 34.8299 83.9914 35.8032 83.6381 36.6899C83.2848 37.5766 82.7881 38.3399 82.1481 38.9799C81.5081 39.6199 80.7381 40.1166 79.8381 40.4699C78.9381 40.8232 77.9381 40.9999 76.8381 40.9999H71.3281V26.5399H76.8381C77.9381 26.5399 78.9381 26.7199 79.8381 27.0799C80.7381 27.4332 81.5081 27.9299 82.1481 28.5699C82.7881 29.2032 83.2848 29.9632 83.6381 30.8499C83.9914 31.7366 84.1681 32.7099 84.1681 33.7699ZM81.4081 33.7699C81.4081 32.9766 81.3014 32.2666 81.0881 31.6399C80.8814 31.0066 80.5781 30.4732 80.1781 30.0399C79.7848 29.5999 79.3048 29.2632 78.7381 29.0299C78.1781 28.7966 77.5448 28.6799 76.8381 28.6799H74.0281V38.8599H76.8381C77.5448 38.8599 78.1781 38.7432 78.7381 38.5099C79.3048 38.2766 79.7848 37.9432 80.1781 37.5099C80.5781 37.0699 80.8814 36.5366 81.0881 35.9099C81.3014 35.2766 81.4081 34.5632 81.4081 33.7699ZM89.2429 40.9999H86.5429V26.5399H89.2429V40.9999ZM106.27 33.7699C106.27 34.8299 106.093 35.8132 105.74 36.7199C105.393 37.6199 104.9 38.3999 104.26 39.0599C103.62 39.7199 102.85 40.2366 101.95 40.6099C101.05 40.9766 100.05 41.1599 98.9504 41.1599C97.8571 41.1599 96.8604 40.9766 95.9604 40.6099C95.0604 40.2366 94.2871 39.7199 93.6404 39.0599C93.0004 38.3999 92.5038 37.6199 92.1504 36.7199C91.7971 35.8132 91.6204 34.8299 91.6204 33.7699C91.6204 32.7099 91.7971 31.7299 92.1504 30.8299C92.5038 29.9232 93.0004 29.1399 93.6404 28.4799C94.2871 27.8199 95.0604 27.3066 95.9604 26.9399C96.8604 26.5666 97.8571 26.3799 98.9504 26.3799C99.6838 26.3799 100.373 26.4666 101.02 26.6399C101.667 26.8066 102.26 27.0466 102.8 27.3599C103.34 27.6666 103.823 28.0432 104.25 28.4899C104.683 28.9299 105.05 29.4232 105.35 29.9699C105.65 30.5166 105.877 31.1099 106.03 31.7499C106.19 32.3899 106.27 33.0632 106.27 33.7699ZM103.52 33.7699C103.52 32.9766 103.413 32.2666 103.2 31.6399C102.987 31.0066 102.683 30.4699 102.29 30.0299C101.897 29.5899 101.417 29.2532 100.85 29.0199C100.29 28.7866 99.6571 28.6699 98.9504 28.6699C98.2438 28.6699 97.6071 28.7866 97.0404 29.0199C96.4804 29.2532 96.0004 29.5899 95.6004 30.0299C95.2071 30.4699 94.9038 31.0066 94.6904 31.6399C94.4771 32.2666 94.3704 32.9766 94.3704 33.7699C94.3704 34.5632 94.4771 35.2766 94.6904 35.9099C94.9038 36.5366 95.2071 37.0699 95.6004 37.5099C96.0004 37.9432 96.4804 38.2766 97.0404 38.5099C97.6071 38.7432 98.2438 38.8599 98.9504 38.8599C99.6571 38.8599 100.29 38.7432 100.85 38.5099C101.417 38.2766 101.897 37.9432 102.29 37.5099C102.683 37.0699 102.987 36.5366 103.2 35.9099C103.413 35.2766 103.52 34.5632 103.52 33.7699Z" fill="white"/>
<rect x="0.5" y="0.5" width="149" height="63" stroke="white"/>
</svg>
