<svg width="300" height="250" viewBox="0 0 300 250" fill="none" xmlns="http://www.w3.org/2000/svg">
<mask id="mask0_746_5664" style="mask-type:alpha" maskUnits="userSpaceOnUse" x="0" y="0" width="300" height="250">
<path d="M300 0H0V250H300V0Z" fill="#C4C4C4"/>
</mask>
<g mask="url(#mask0_746_5664)">
<path d="M153 28H151C115.101 28 86 57.1015 86 93C86 128.899 115.101 158 151 158H153C188.899 158 218 128.899 218 93C218 57.1015 188.899 28 153 28Z" fill="#515151" fill-opacity="0.1"/>
<path d="M81.4756 132.893C73.4517 135.212 64.2197 137.599 58.0985 138.822C61.0931 136.246 64.8584 133.272 66.9057 131.567C73.2682 126.47 73.8182 126.053 73.3047 123.869C72.8073 121.754 71.9604 121.521 65.5266 119.577C63.1384 118.915 58.9562 117.666 56.1146 116.606C59.8438 113.785 66.8766 109.395 70.0477 107.569C71.2717 108.793 73.194 111.149 74.8113 113.433C75.8788 114.911 77.9819 115.28 79.4592 114.213C80.9364 113.145 81.2537 111.126 80.1702 109.581C73.0992 99.7221 71.0521 100.204 69.4145 100.589C67.7768 100.974 58.4078 107.065 58.2713 107.097C48.0955 113.739 47.168 115.613 47.5771 117.965C48.0784 121.016 51.2411 122.217 63.4827 125.891C63.3101 126.075 63.0692 126.276 62.8123 126.408C48.883 137.605 46.4141 140.274 47.1522 143.413C47.3769 144.368 48.011 145.227 48.922 145.733C49.7648 146.255 51.5187 147.283 64.9613 144.122C69.6014 143.03 75.5742 141.482 83.3251 139.227C85.0672 138.674 86.0789 136.851 85.5934 135.093C85.108 133.335 83.2176 132.34 81.4756 132.893Z" fill="#373B40"/>
<path d="M114.411 82.0864C112.577 81.9417 111.011 83.246 110.782 85.0281L108.374 110.006C106.34 105.947 103.828 102.001 101.175 100.825C99.9748 100.315 98.6664 100.263 97.4862 100.756C92.2199 102.859 87.2431 130.385 87.1419 136.385C87.0654 138.204 86.9726 142.402 90.0991 143.755C90.673 144.052 91.6363 144.474 93.1375 144.121C95.7987 143.495 100.078 140.256 106.566 128.649L105.79 136.681C105.561 138.463 106.881 140.097 108.716 140.241C109.089 140.298 109.446 140.286 109.787 140.206C111.152 139.885 112.188 138.777 112.344 137.3L117.353 85.7153C117.565 83.865 116.177 82.2472 114.411 82.0864ZM93.6764 136.001C93.9904 129.374 97.4483 114.375 99.8614 108.407C101.21 110.466 103.08 114.131 104.641 118.013C100.895 125.662 96.4584 132.826 93.6764 136.001Z" fill="#373B40"/>
<path d="M122.399 109.516C120.564 109.372 119.031 110.812 118.954 112.631C118.91 113.361 118.189 130.813 118.092 134.076C118.032 135.963 119.457 137.428 121.343 137.488C121.564 137.508 121.837 137.444 122.11 137.38C123.543 137.043 124.615 135.783 124.687 134.254C124.716 131.007 125.545 113.097 125.581 112.945C125.657 111.126 124.217 109.593 122.399 109.516ZM123.83 92.3294C121.995 92.1847 120.362 93.5051 120.201 95.2711L119.505 102.42C119.293 104.27 120.613 105.904 122.447 106.048C122.82 106.105 123.178 106.093 123.519 106.012C124.884 105.692 125.919 104.584 126.076 103.107L126.771 95.9583C126.916 94.124 125.612 92.5584 123.83 92.3294Z" fill="#373B40"/>
<path d="M155.045 96.3669C150.891 96.7678 146.953 97.4777 143.509 98.1435L143.646 93.2146C143.723 91.3963 142.282 89.8629 140.464 89.7864C138.593 89.7941 137.128 91.2188 137.052 93.0371L136.89 99.7C133.137 100.582 130.729 101.365 130.524 101.413C128.798 102.035 127.855 103.841 128.408 105.583C128.962 107.325 130.836 108.253 132.578 107.699C132.578 107.699 134.116 107.193 136.624 106.531L135.975 129.799C135.967 131.601 137.339 133.151 139.21 133.143C139.515 133.215 139.788 133.151 140.061 133.087C141.425 132.766 142.497 131.506 142.57 129.977L143.312 104.959C146.944 104.177 151.223 103.387 155.719 102.905C155.855 102.873 155.991 102.841 156.128 102.809C157.766 102.424 158.858 100.943 158.677 99.2573C158.465 97.4351 156.867 96.1544 155.045 96.3669Z" fill="#373B40"/>
<path d="M207.075 57.8478C190.053 60.4826 146.934 76.1667 145.072 76.8207C143.414 77.4265 142.487 79.3009 143.109 81.0269C143.698 82.6164 145.352 83.5238 146.99 83.1386C147.126 83.1066 147.247 83.0062 147.315 82.9902C147.519 82.942 154.355 80.4705 163.616 77.2848L159.669 117.458C159.524 119.293 160.828 120.858 162.61 121.087C162.984 121.143 163.325 121.063 163.666 120.983C165.031 120.662 166.066 119.554 166.239 118.146L170.483 74.9496C183.842 70.5122 199.621 65.6496 208.038 64.3904C209.828 64.0414 211.093 62.3759 210.828 60.6379C210.547 58.8316 208.813 57.5831 207.075 57.8478Z" fill="#373B40"/>
<path d="M186.025 110.108C186.382 110.096 186.756 110.153 187.097 110.072C187.165 110.056 187.233 110.04 187.302 110.024C188.666 109.703 189.766 108.869 190.513 107.757C196.41 98.2329 197.669 80.0064 193.873 76.7226C193.134 76.0321 191.914 75.743 190.943 75.8994C189.751 76.0357 188.029 76.3686 180.83 87.7106L181.036 83.9899C181.112 82.1716 179.74 80.6221 177.99 80.5296C176.155 80.3848 174.538 81.7734 174.461 83.5916L173.5 100.02C173.323 100.494 173.299 101.003 173.411 101.481L171.874 126.182C171.798 128 173.17 129.549 174.989 129.626C175.294 129.698 175.635 129.618 175.908 129.554C177.341 129.217 178.36 128.041 178.449 126.58L179.298 113.347L209.005 145.978C209.78 146.516 210.763 146.717 211.719 146.492C212.469 146.315 213.088 145.882 213.589 145.26C214.681 143.779 214.336 141.7 212.855 140.608L186.025 110.108ZM189.38 86.7083C189.227 91.569 188.23 98.3562 185.336 103.501C184.268 103.248 182.241 102.285 180.371 101.068C183.418 95.9593 186.827 90.5492 189.38 86.7083Z" fill="#373B40"/>
<path d="M222.631 76.8732C220.797 76.7285 219.231 78.0328 219.018 79.8831L218.652 84.1457C216.602 80.0192 214.09 76.0733 211.437 74.8969C210.237 74.387 208.928 74.3347 207.748 74.8282C202.482 76.9307 197.505 104.457 197.404 110.457C197.327 112.275 197.234 116.474 200.361 117.827C200.935 118.124 201.898 118.546 203.399 118.193C206.06 117.567 210.34 114.328 216.827 102.721L216.052 110.753C215.823 112.535 217.143 114.169 218.977 114.313C219.351 114.37 219.708 114.358 220.049 114.277C221.414 113.956 222.449 112.849 222.606 111.372L225.572 80.5021C225.802 78.72 224.481 77.0862 222.631 76.8732ZM203.938 110.073C204.252 103.446 207.71 88.447 210.123 82.4788C211.471 84.5381 213.341 88.2029 214.902 92.0845C211.156 99.7342 206.72 106.898 203.938 110.073Z" fill="#373B40"/>
<path d="M250.273 66.7003C248.652 65.9295 246.669 66.6838 245.914 68.3735L239.49 82.7019L233.242 72.3615C232.295 70.784 230.244 70.3301 228.734 71.2611C227.157 72.2082 226.619 74.207 227.566 75.7845L236.242 90.0186L228.694 106.916C227.923 108.537 228.677 110.52 230.367 111.275C231.009 111.556 231.739 111.6 232.422 111.44C233.377 111.215 234.236 110.581 234.658 109.618L240.379 96.8948L246.378 106.79C247.109 108.058 248.598 108.572 249.962 108.251C250.235 108.187 250.577 108.107 250.886 107.89C252.463 106.943 252.933 104.96 251.986 103.383L243.627 89.5781L251.946 71.0595C252.701 69.3698 251.963 67.4552 250.273 66.7003Z" fill="#373B40"/>
<path d="M220.53 132.056C220.53 131.068 219.75 130.287 218.507 130.287C217.249 130.287 216.469 131.068 216.469 132.056C216.469 133.029 217.249 133.794 218.507 133.794C219.75 133.794 220.53 133.029 220.53 132.056Z" fill="#373B40"/>
<path d="M229.119 122.379V128.15L225.376 122.379H221.84V133.667H225.376V127.991L229.119 133.667H232.654V122.379H229.119Z" fill="#373B40"/>
<path d="M234.254 133.667H237.79V129.41H240.975V126.747H237.79V125.185H242.218V122.379H234.254V133.667Z" fill="#373B40"/>
<path d="M242.777 125.185H245.74V133.667H249.276V125.185H252.27V122.379H242.777V125.185Z" fill="#373B40"/>
<path d="M236 174H64V221H236V174Z" fill="#4B4F53"/>
<path d="M106.9 199.27L106.02 196.865C105.977 196.758 105.932 196.632 105.885 196.485C105.839 196.338 105.792 196.18 105.745 196.01C105.702 196.18 105.657 196.34 105.61 196.49C105.564 196.637 105.519 196.765 105.475 196.875L104.6 199.27H106.9ZM109.275 202H108.235C108.119 202 108.024 201.972 107.95 201.915C107.877 201.855 107.822 201.782 107.785 201.695L107.245 200.22H104.25L103.71 201.695C103.684 201.772 103.632 201.842 103.555 201.905C103.479 201.968 103.384 202 103.27 202H102.22L105.065 194.77H106.435L109.275 202ZM114.259 200.89V202H110.024V194.77H111.369V200.89H114.259ZM117.569 198.405C117.816 198.405 118.031 198.375 118.214 198.315C118.397 198.252 118.549 198.163 118.669 198.05C118.792 197.933 118.884 197.793 118.944 197.63C119.004 197.463 119.034 197.278 119.034 197.075C119.034 196.882 119.004 196.707 118.944 196.55C118.884 196.393 118.794 196.26 118.674 196.15C118.554 196.04 118.402 195.957 118.219 195.9C118.036 195.84 117.819 195.81 117.569 195.81H116.564V198.405H117.569ZM117.569 194.77C118.052 194.77 118.471 194.827 118.824 194.94C119.177 195.053 119.469 195.212 119.699 195.415C119.929 195.618 120.099 195.862 120.209 196.145C120.322 196.428 120.379 196.738 120.379 197.075C120.379 197.425 120.321 197.747 120.204 198.04C120.087 198.33 119.912 198.58 119.679 198.79C119.446 199 119.152 199.163 118.799 199.28C118.449 199.397 118.039 199.455 117.569 199.455H116.564V202H115.219V194.77H117.569ZM127.505 194.77V202H126.155V198.84H122.76V202H121.41V194.77H122.76V197.88H126.155V194.77H127.505ZM132.936 199.27L132.056 196.865C132.012 196.758 131.967 196.632 131.921 196.485C131.874 196.338 131.827 196.18 131.781 196.01C131.737 196.18 131.692 196.34 131.646 196.49C131.599 196.637 131.554 196.765 131.511 196.875L130.636 199.27H132.936ZM135.311 202H134.271C134.154 202 134.059 201.972 133.986 201.915C133.912 201.855 133.857 201.782 133.821 201.695L133.281 200.22H130.286L129.746 201.695C129.719 201.772 129.667 201.842 129.591 201.905C129.514 201.968 129.419 202 129.306 202H128.256L131.101 194.77H132.471L135.311 202ZM142.906 195.875H140.726V202H139.381V195.875H137.201V194.77H142.906V195.875ZM145.202 195.84V197.845H147.732V198.88H145.202V200.925H148.412V202H143.852V194.77H148.412V195.84H145.202ZM153.454 196.085C153.414 196.155 153.37 196.207 153.324 196.24C153.28 196.27 153.225 196.285 153.159 196.285C153.089 196.285 153.012 196.26 152.929 196.21C152.849 196.157 152.752 196.098 152.639 196.035C152.525 195.972 152.392 195.915 152.239 195.865C152.089 195.812 151.91 195.785 151.704 195.785C151.517 195.785 151.354 195.808 151.214 195.855C151.074 195.898 150.955 195.96 150.859 196.04C150.765 196.12 150.695 196.217 150.649 196.33C150.602 196.44 150.579 196.562 150.579 196.695C150.579 196.865 150.625 197.007 150.719 197.12C150.815 197.233 150.942 197.33 151.099 197.41C151.255 197.49 151.434 197.562 151.634 197.625C151.834 197.688 152.039 197.757 152.249 197.83C152.459 197.9 152.664 197.983 152.864 198.08C153.064 198.173 153.242 198.293 153.399 198.44C153.555 198.583 153.68 198.76 153.774 198.97C153.87 199.18 153.919 199.435 153.919 199.735C153.919 200.062 153.862 200.368 153.749 200.655C153.639 200.938 153.475 201.187 153.259 201.4C153.045 201.61 152.784 201.777 152.474 201.9C152.164 202.02 151.809 202.08 151.409 202.08C151.179 202.08 150.952 202.057 150.729 202.01C150.505 201.967 150.29 201.903 150.084 201.82C149.88 201.737 149.689 201.637 149.509 201.52C149.329 201.403 149.169 201.273 149.029 201.13L149.424 200.485C149.457 200.438 149.5 200.4 149.554 200.37C149.607 200.337 149.664 200.32 149.724 200.32C149.807 200.32 149.897 200.355 149.994 200.425C150.09 200.492 150.205 200.567 150.339 200.65C150.472 200.733 150.627 200.81 150.804 200.88C150.984 200.947 151.199 200.98 151.449 200.98C151.832 200.98 152.129 200.89 152.339 200.71C152.549 200.527 152.654 200.265 152.654 199.925C152.654 199.735 152.605 199.58 152.509 199.46C152.415 199.34 152.29 199.24 152.134 199.16C151.977 199.077 151.799 199.007 151.599 198.95C151.399 198.893 151.195 198.832 150.989 198.765C150.782 198.698 150.579 198.618 150.379 198.525C150.179 198.432 150 198.31 149.844 198.16C149.687 198.01 149.56 197.823 149.464 197.6C149.37 197.373 149.324 197.095 149.324 196.765C149.324 196.502 149.375 196.245 149.479 195.995C149.585 195.745 149.739 195.523 149.939 195.33C150.139 195.137 150.385 194.982 150.679 194.865C150.972 194.748 151.309 194.69 151.689 194.69C152.115 194.69 152.509 194.757 152.869 194.89C153.229 195.023 153.535 195.21 153.789 195.45L153.454 196.085ZM160.142 195.875H157.962V202H156.617V195.875H154.437V194.77H160.142V195.875ZM162.982 198.465H165.572V199.495H162.982V198.465ZM170.729 195.84V197.845H173.259V198.88H170.729V200.925H173.939V202H169.379V194.77H173.939V195.84H170.729ZM180.181 195.875H178.001V202H176.656V195.875H174.476V194.77H180.181V195.875ZM185.872 198.385C185.872 199.015 185.804 199.563 185.667 200.03C185.534 200.493 185.347 200.877 185.107 201.18C184.871 201.483 184.589 201.71 184.262 201.86C183.939 202.007 183.589 202.08 183.212 202.08C182.836 202.08 182.486 202.007 182.162 201.86C181.842 201.71 181.564 201.483 181.327 201.18C181.091 200.877 180.906 200.493 180.772 200.03C180.639 199.563 180.572 199.015 180.572 198.385C180.572 197.752 180.639 197.203 180.772 196.74C180.906 196.277 181.091 195.893 181.327 195.59C181.564 195.287 181.842 195.062 182.162 194.915C182.486 194.765 182.836 194.69 183.212 194.69C183.589 194.69 183.939 194.765 184.262 194.915C184.589 195.062 184.871 195.287 185.107 195.59C185.347 195.893 185.534 196.277 185.667 196.74C185.804 197.203 185.872 197.752 185.872 198.385ZM184.597 198.385C184.597 197.862 184.559 197.428 184.482 197.085C184.406 196.742 184.302 196.468 184.172 196.265C184.046 196.062 183.899 195.92 183.732 195.84C183.566 195.757 183.392 195.715 183.212 195.715C183.036 195.715 182.864 195.757 182.697 195.84C182.534 195.92 182.389 196.062 182.262 196.265C182.136 196.468 182.034 196.742 181.957 197.085C181.884 197.428 181.847 197.862 181.847 198.385C181.847 198.908 181.884 199.342 181.957 199.685C182.034 200.028 182.136 200.302 182.262 200.505C182.389 200.708 182.534 200.852 182.697 200.935C182.864 201.015 183.036 201.055 183.212 201.055C183.392 201.055 183.566 201.015 183.732 200.935C183.899 200.852 184.046 200.708 184.172 200.505C184.302 200.302 184.406 200.028 184.482 199.685C184.559 199.342 184.597 198.908 184.597 198.385ZM191.673 198.385C191.673 199.015 191.605 199.563 191.468 200.03C191.335 200.493 191.148 200.877 190.908 201.18C190.671 201.483 190.39 201.71 190.063 201.86C189.74 202.007 189.39 202.08 189.013 202.08C188.636 202.08 188.286 202.007 187.963 201.86C187.643 201.71 187.365 201.483 187.128 201.18C186.891 200.877 186.706 200.493 186.573 200.03C186.44 199.563 186.373 199.015 186.373 198.385C186.373 197.752 186.44 197.203 186.573 196.74C186.706 196.277 186.891 195.893 187.128 195.59C187.365 195.287 187.643 195.062 187.963 194.915C188.286 194.765 188.636 194.69 189.013 194.69C189.39 194.69 189.74 194.765 190.063 194.915C190.39 195.062 190.671 195.287 190.908 195.59C191.148 195.893 191.335 196.277 191.468 196.74C191.605 197.203 191.673 197.752 191.673 198.385ZM190.398 198.385C190.398 197.862 190.36 197.428 190.283 197.085C190.206 196.742 190.103 196.468 189.973 196.265C189.846 196.062 189.7 195.92 189.533 195.84C189.366 195.757 189.193 195.715 189.013 195.715C188.836 195.715 188.665 195.757 188.498 195.84C188.335 195.92 188.19 196.062 188.063 196.265C187.936 196.468 187.835 196.742 187.758 197.085C187.685 197.428 187.648 197.862 187.648 198.385C187.648 198.908 187.685 199.342 187.758 199.685C187.835 200.028 187.936 200.302 188.063 200.505C188.19 200.708 188.335 200.852 188.498 200.935C188.665 201.015 188.836 201.055 189.013 201.055C189.193 201.055 189.366 201.015 189.533 200.935C189.7 200.852 189.846 200.708 189.973 200.505C190.103 200.302 190.206 200.028 190.283 199.685C190.36 199.342 190.398 198.908 190.398 198.385ZM197.099 201.075V202H193.099V201.075H194.564V196.86C194.564 196.693 194.569 196.522 194.579 196.345L193.539 197.215C193.479 197.262 193.419 197.292 193.359 197.305C193.302 197.315 193.247 197.315 193.194 197.305C193.144 197.295 193.099 197.278 193.059 197.255C193.019 197.228 192.989 197.2 192.969 197.17L192.579 196.635L194.784 194.76H195.799V201.075H197.099Z" fill="white"/>
</g>
</svg>
