<svg width="150" height="41" viewBox="0 0 150 41" fill="none" xmlns="http://www.w3.org/2000/svg">
<path d="M129.5 38.5L20.5 38.5C10.5589 38.5 2.5 30.4411 2.5 20.5C2.5 10.5589 10.5589 2.5 20.5 2.5L129.5 2.5C139.441 2.5 147.5 10.5589 147.5 20.5C147.5 30.4411 139.441 38.5 129.5 38.5Z" fill="white" stroke="black"/>
<path d="M42.8609 20.7699C42.8609 21.8299 42.6843 22.8132 42.3309 23.7199C41.9843 24.6199 41.4909 25.3999 40.8509 26.0599C40.2109 26.7199 39.4409 27.2366 38.5409 27.6099C37.6409 27.9766 36.6409 28.1599 35.5409 28.1599C34.4476 28.1599 33.4509 27.9766 32.5509 27.6099C31.6509 27.2366 30.8776 26.7199 30.2309 26.0599C29.5909 25.3999 29.0943 24.6199 28.7409 23.7199C28.3876 22.8132 28.2109 21.8299 28.2109 20.7699C28.2109 19.7099 28.3876 18.7299 28.7409 17.8299C29.0943 16.9232 29.5909 16.1399 30.2309 15.4799C30.8776 14.8199 31.6509 14.3066 32.5509 13.9399C33.4509 13.5666 34.4476 13.3799 35.5409 13.3799C36.2743 13.3799 36.9643 13.4666 37.6109 13.6399C38.2576 13.8066 38.8509 14.0466 39.3909 14.3599C39.9309 14.6666 40.4143 15.0432 40.8409 15.4899C41.2743 15.9299 41.6409 16.4232 41.9409 16.9699C42.2409 17.5166 42.4676 18.1099 42.6209 18.7499C42.7809 19.3899 42.8609 20.0632 42.8609 20.7699ZM40.1109 20.7699C40.1109 19.9766 40.0043 19.2666 39.7909 18.6399C39.5776 18.0066 39.2743 17.4699 38.8809 17.0299C38.4876 16.5899 38.0076 16.2532 37.4409 16.0199C36.8809 15.7866 36.2476 15.6699 35.5409 15.6699C34.8343 15.6699 34.1976 15.7866 33.6309 16.0199C33.0709 16.2532 32.5909 16.5899 32.1909 17.0299C31.7976 17.4699 31.4943 18.0066 31.2809 18.6399C31.0676 19.2666 30.9609 19.9766 30.9609 20.7699C30.9609 21.5632 31.0676 22.2766 31.2809 22.9099C31.4943 23.5366 31.7976 24.0699 32.1909 24.5099C32.5909 24.9432 33.0709 25.2766 33.6309 25.5099C34.1976 25.7432 34.8343 25.8599 35.5409 25.8599C36.2476 25.8599 36.8809 25.7432 37.4409 25.5099C38.0076 25.2766 38.4876 24.9432 38.8809 24.5099C39.2743 24.0699 39.5776 23.5366 39.7909 22.9099C40.0043 22.2766 40.1109 21.5632 40.1109 20.7699ZM49.5933 20.4199C50.0999 20.4199 50.5399 20.3566 50.9133 20.2299C51.2933 20.1032 51.6033 19.9299 51.8433 19.7099C52.0899 19.4832 52.2733 19.2166 52.3933 18.9099C52.5133 18.6032 52.5733 18.2666 52.5733 17.8999C52.5733 17.1666 52.3299 16.6032 51.8433 16.2099C51.3633 15.8166 50.6266 15.6199 49.6333 15.6199H47.9133V20.4199H49.5933ZM56.5133 27.9999H54.0833C53.6233 27.9999 53.2899 27.8199 53.0833 27.4599L50.0433 22.8299C49.9299 22.6566 49.8033 22.5332 49.6633 22.4599C49.5299 22.3866 49.3299 22.3499 49.0633 22.3499H47.9133V27.9999H45.2233V13.5399H49.6333C50.6133 13.5399 51.4533 13.6432 52.1533 13.8499C52.8599 14.0499 53.4366 14.3332 53.8833 14.6999C54.3366 15.0666 54.6699 15.5066 54.8833 16.0199C55.0966 16.5266 55.2033 17.0866 55.2033 17.6999C55.2033 18.1866 55.1299 18.6466 54.9833 19.0799C54.8433 19.5132 54.6366 19.9066 54.3633 20.2599C54.0966 20.6132 53.7633 20.9232 53.3633 21.1899C52.9699 21.4566 52.5199 21.6666 52.0133 21.8199C52.1866 21.9199 52.3466 22.0399 52.4933 22.1799C52.6399 22.3132 52.7733 22.4732 52.8933 22.6599L56.5133 27.9999ZM60.7748 27.9999H58.0748V13.5399H60.7748V27.9999ZM75.9323 20.7499V26.5999C75.199 27.1399 74.4157 27.5366 73.5823 27.7899C72.7557 28.0366 71.869 28.1599 70.9223 28.1599C69.7423 28.1599 68.6723 27.9766 67.7123 27.6099C66.759 27.2432 65.9423 26.7332 65.2623 26.0799C64.589 25.4266 64.069 24.6466 63.7023 23.7399C63.3357 22.8332 63.1523 21.8432 63.1523 20.7699C63.1523 19.6832 63.329 18.6866 63.6823 17.7799C64.0357 16.8732 64.5357 16.0932 65.1823 15.4399C65.8357 14.7866 66.6257 14.2799 67.5523 13.9199C68.479 13.5599 69.519 13.3799 70.6723 13.3799C71.259 13.3799 71.8057 13.4266 72.3123 13.5199C72.8257 13.6132 73.299 13.7432 73.7323 13.9099C74.1723 14.0699 74.5723 14.2666 74.9323 14.4999C75.2923 14.7332 75.6223 14.9899 75.9223 15.2699L75.1523 16.4899C75.0323 16.6832 74.8757 16.8032 74.6823 16.8499C74.489 16.8899 74.279 16.8399 74.0523 16.6999C73.8323 16.5732 73.6123 16.4466 73.3923 16.3199C73.1723 16.1932 72.9257 16.0832 72.6523 15.9899C72.3857 15.8966 72.0823 15.8199 71.7423 15.7599C71.409 15.6999 71.0223 15.6699 70.5823 15.6699C69.869 15.6699 69.2223 15.7899 68.6423 16.0299C68.069 16.2699 67.579 16.6132 67.1723 17.0599C66.7657 17.5066 66.4523 18.0432 66.2323 18.6699C66.0123 19.2966 65.9023 19.9966 65.9023 20.7699C65.9023 21.5966 66.019 22.3366 66.2523 22.9899C66.4923 23.6366 66.8257 24.1866 67.2523 24.6399C67.6857 25.0866 68.2057 25.4299 68.8123 25.6699C69.419 25.9032 70.0957 26.0199 70.8423 26.0199C71.3757 26.0199 71.8523 25.9632 72.2723 25.8499C72.6923 25.7366 73.1023 25.5832 73.5023 25.3899V22.7699H71.6823C71.509 22.7699 71.3723 22.7232 71.2723 22.6299C71.179 22.5299 71.1323 22.4099 71.1323 22.2699V20.7499H75.9323ZM81.2241 27.9999H78.5241V13.5399H81.2241V27.9999ZM96.6516 13.5399V27.9999H95.2716C95.0582 27.9999 94.8782 27.9666 94.7316 27.8999C94.5916 27.8266 94.4549 27.7066 94.3216 27.5399L86.7716 17.8999C86.8116 18.3399 86.8316 18.7466 86.8316 19.1199V27.9999H84.4616V13.5399H85.8716C85.9849 13.5399 86.0816 13.5466 86.1616 13.5599C86.2482 13.5666 86.3216 13.5866 86.3816 13.6199C86.4482 13.6466 86.5116 13.6899 86.5716 13.7499C86.6316 13.8032 86.6982 13.8766 86.7716 13.9699L94.3516 23.6499C94.3316 23.4166 94.3149 23.1866 94.3016 22.9599C94.2882 22.7332 94.2816 22.5232 94.2816 22.3299V13.5399H96.6516ZM107.512 22.5399L105.752 17.7299C105.665 17.5166 105.575 17.2632 105.482 16.9699C105.388 16.6766 105.295 16.3599 105.202 16.0199C105.115 16.3599 105.025 16.6799 104.932 16.9799C104.838 17.2732 104.748 17.5299 104.662 17.7499L102.912 22.5399H107.512ZM112.262 27.9999H110.182C109.948 27.9999 109.758 27.9432 109.612 27.8299C109.465 27.7099 109.355 27.5632 109.282 27.3899L108.202 24.4399H102.212L101.132 27.3899C101.078 27.5432 100.975 27.6832 100.822 27.8099C100.668 27.9366 100.478 27.9999 100.252 27.9999H98.1517L103.842 13.5399H106.582L112.262 27.9999ZM122.228 25.7799V27.9999H113.758V13.5399H116.448V25.7799H122.228Z" fill="black"/>
</svg>
