<svg width="150" height="41" viewBox="0 0 150 41" fill="none" xmlns="http://www.w3.org/2000/svg">
<path d="M147.5 38.5L2.5 38.5V2.5L147.5 2.5V38.5Z" stroke="white"/>
<path d="M55.5 27.5H60.51C61.556 27.5 62.4929 27.3321 63.3273 27.0046C64.1677 26.6747 64.8783 26.2146 65.4664 25.6265C66.0558 25.0371 66.5159 24.3321 66.8455 23.505C67.1729 22.6833 67.34 21.7736 67.34 20.77C67.34 19.7665 67.1729 18.8568 66.8455 18.0352L55.5 27.5ZM55.5 27.5V14.04H60.51C61.5549 14.04 62.4908 14.2109 63.3243 14.5443L63.3243 14.5443L63.3273 14.5455C64.1677 14.8754 64.8783 15.3355 65.4664 15.9236L65.4683 15.9254C66.0565 16.5074 66.516 17.2084 66.8455 18.0351L55.5 27.5ZM60.51 26.36C61.2715 26.36 61.9715 26.2342 62.6013 25.972C63.2328 25.7118 63.7749 25.3366 64.2202 24.8461C64.6719 24.3492 65.0082 23.7533 65.2343 23.0681C65.4675 22.3752 65.58 21.6071 65.58 20.77C65.58 19.9337 65.4677 19.1688 65.2343 18.4819C65.0087 17.7918 64.6729 17.1952 64.2201 16.7038C63.7752 16.2071 63.2333 15.8285 62.6013 15.5681C61.9715 15.3059 61.2715 15.18 60.51 15.18H57.7H57.2V15.68V25.86V26.36H57.7H60.51ZM80.0568 26.131L80.0567 26.1311C79.5961 26.6037 79.0295 26.9797 78.3488 27.2559C77.6766 27.522 76.9078 27.66 76.0348 27.66C75.1547 27.66 74.3826 27.5219 73.7108 27.2559C73.0307 26.9799 72.4605 26.6041 71.9928 26.131C71.5298 25.6493 71.1692 25.0785 70.9124 24.4128C70.6625 23.7414 70.5348 23.0053 70.5348 22.2V14.04H72.2248V22.19C72.2248 22.7872 72.304 23.341 72.4697 23.846L72.4697 23.846L72.4719 23.8524C72.644 24.3536 72.8913 24.7953 73.2185 25.1693L73.2184 25.1694L73.2259 25.1776C73.5628 25.5457 73.9692 25.8299 74.4388 26.03L74.4415 26.0312C74.9251 26.2339 75.4589 26.33 76.0348 26.33C76.6099 26.33 77.1413 26.2341 77.6195 26.0306C78.0963 25.8305 78.5052 25.5452 78.8376 25.1732C79.168 24.8035 79.4133 24.3623 79.5788 23.8591C79.7522 23.3529 79.8348 22.798 79.8348 22.2V14.04H81.5248V22.2C81.5248 23.0049 81.394 23.7405 81.1377 24.4117L81.1368 24.414C80.8868 25.0788 80.5265 25.6492 80.0568 26.131ZM91.895 26.1915C92.2853 26.0538 92.6245 25.8602 92.8893 25.5964C93.1501 25.3431 93.3399 25.0429 93.4524 24.7C93.5641 24.3786 93.6186 24.041 93.6186 23.69C93.6186 23.3243 93.5603 22.9796 93.4328 22.6642C93.3015 22.3327 93.0944 22.0508 92.8175 21.8249C92.5372 21.5895 92.1923 21.4254 91.8023 21.3182C91.4126 21.2093 90.9616 21.16 90.4586 21.16H87.7486H87.2486V21.66V25.9V26.4H87.7486H90.4686C91.005 26.4 91.4853 26.3361 91.895 26.1915ZM87.7486 15.12H87.2486V15.62V19.8V20.3H87.7486H89.8886C90.8541 20.3 91.669 20.1277 92.2577 19.708C92.8971 19.2571 93.1786 18.5524 93.1786 17.71C93.1786 16.8682 92.9375 16.1493 92.3386 15.7001L92.3386 15.7C91.7832 15.2835 90.9851 15.12 90.0386 15.12H87.7486ZM85.5586 27.5V14.04H90.0386C90.956 14.04 91.7202 14.1275 92.3395 14.2931C92.9657 14.4605 93.4499 14.6922 93.8108 14.9741L93.8138 14.9764C94.1831 15.2605 94.4438 15.596 94.608 15.9847C94.7783 16.3876 94.8686 16.8533 94.8686 17.39C94.8686 17.6798 94.8262 17.9547 94.7427 18.2168C94.6619 18.4636 94.5343 18.702 94.3544 18.9324L94.3534 18.9337C94.1843 19.152 93.959 19.3602 93.6693 19.5553L93.6653 19.558C93.3897 19.7475 93.0489 19.9155 92.6363 20.0571L90.966 20.6305L92.6889 21.0179C93.621 21.2274 94.2609 21.5713 94.6666 22.0097C95.064 22.439 95.2786 23.0041 95.2786 23.75C95.2786 24.2982 95.1747 24.7945 94.9724 25.2454C94.7706 25.6949 94.4771 26.0848 94.0864 26.4177C93.6967 26.743 93.2061 27.008 92.6034 27.2047C92.0098 27.3985 91.3171 27.5 90.5186 27.5H85.5586Z" stroke="white"/>
</svg>
