<svg width="150" height="41" viewBox="0 0 150 41" fill="none" xmlns="http://www.w3.org/2000/svg">
<rect x="150" y="41" width="150" height="41" transform="rotate(-180 150 41)" fill="url(#paint0_linear_510_5434)"/>
<rect x="148" y="39" width="146" height="37" transform="rotate(-180 148 39)" fill="#4B4F53"/>
<path d="M60.853 15.68L60.853 19.69L65.913 19.69L65.913 21.76L60.853 21.76L60.853 25.85L67.273 25.85L67.273 28L58.153 28L58.153 13.54L67.273 13.54L67.273 15.68L60.853 15.68ZM81.4069 28L78.7269 28C78.5402 28 78.3902 27.9533 78.2769 27.86C78.1702 27.7667 78.0835 27.66 78.0169 27.54L74.6669 21.99C74.6135 22.1567 74.5502 22.3 74.4769 22.42L71.2669 27.54C71.1869 27.6533 71.0935 27.76 70.9869 27.86C70.8869 27.9533 70.7535 28 70.5869 28L68.0769 28L72.8769 20.56L68.2669 13.54L70.9469 13.54C71.1335 13.54 71.2669 13.5667 71.3469 13.62C71.4335 13.6667 71.5135 13.7467 71.5869 13.86L74.8769 19.16C74.9435 18.9933 75.0235 18.8267 75.1169 18.66L78.1369 13.91C78.2102 13.7833 78.2902 13.69 78.3769 13.63C78.4635 13.57 78.5735 13.54 78.7069 13.54L81.2769 13.54L76.6269 20.45L81.4069 28ZM93.1748 15.75L88.8148 15.75L88.8148 28L86.1248 28L86.1248 15.75L81.7648 15.75L81.7648 13.54L93.1748 13.54L93.1748 15.75Z" fill="white"/>
<defs>
<linearGradient id="paint0_linear_510_5434" x1="274.432" y1="77.3408" x2="261.676" y2="25.1346" gradientUnits="userSpaceOnUse">
<stop stop-color="#656565"/>
<stop offset="1" stop-color="#010C12"/>
</linearGradient>
</defs>
</svg>
