<svg width="150" height="41" viewBox="0 0 150 41" fill="none" xmlns="http://www.w3.org/2000/svg">
<rect x="150" y="41" width="150" height="41" transform="rotate(-180 150 41)" fill="url(#paint0_linear_510_5435)"/>
<rect x="148" y="39" width="146" height="37" transform="rotate(-180 148 39)" fill="#4B4F53"/>
<path d="M57.3179 20.42C57.8246 20.42 58.2646 20.3567 58.6379 20.23C59.0179 20.1033 59.3279 19.93 59.5679 19.71C59.8146 19.4833 59.9979 19.2167 60.1179 18.91C60.2379 18.6033 60.2979 18.2667 60.2979 17.9C60.2979 17.1667 60.0546 16.6033 59.5679 16.21C59.0879 15.8167 58.3512 15.62 57.3579 15.62L55.6379 15.62L55.6379 20.42L57.3179 20.42ZM64.2379 28L61.8079 28C61.3479 28 61.0146 27.82 60.8079 27.46L57.7679 22.83C57.6546 22.6567 57.5279 22.5333 57.3879 22.46C57.2546 22.3867 57.0546 22.35 56.7879 22.35L55.6379 22.35L55.6379 28L52.9479 28L52.9479 13.54L57.3579 13.54C58.3379 13.54 59.1779 13.6433 59.8779 13.85C60.5846 14.05 61.1612 14.3333 61.6079 14.7C62.0612 15.0667 62.3946 15.5067 62.6079 16.02C62.8212 16.5267 62.9279 17.0867 62.9279 17.7C62.9279 18.1867 62.8546 18.6467 62.7079 19.08C62.5679 19.5133 62.3612 19.9067 62.0879 20.26C61.8212 20.6133 61.4879 20.9233 61.0879 21.19C60.6946 21.4567 60.2446 21.6667 59.7379 21.82C59.9112 21.92 60.0712 22.04 60.2179 22.18C60.3646 22.3133 60.4979 22.4733 60.6179 22.66L64.2379 28ZM68.4995 15.68L68.4995 19.69L73.5595 19.69L73.5595 21.76L68.4995 21.76L68.4995 25.85L74.9195 25.85L74.9195 28L65.7995 28L65.7995 13.54L74.9195 13.54L74.9195 15.68L68.4995 15.68ZM85.0034 16.17C84.9234 16.31 84.8367 16.4133 84.7434 16.48C84.6567 16.54 84.5467 16.57 84.4134 16.57C84.2734 16.57 84.12 16.52 83.9534 16.42C83.7934 16.3133 83.6 16.1967 83.3734 16.07C83.1467 15.9433 82.88 15.83 82.5734 15.73C82.2734 15.6233 81.9167 15.57 81.5034 15.57C81.13 15.57 80.8034 15.6167 80.5234 15.71C80.2434 15.7967 80.0067 15.92 79.8134 16.08C79.6267 16.24 79.4867 16.4333 79.3934 16.66C79.3 16.88 79.2534 17.1233 79.2534 17.39C79.2534 17.73 79.3467 18.0133 79.5334 18.24C79.7267 18.4667 79.98 18.66 80.2934 18.82C80.6067 18.98 80.9634 19.1233 81.3634 19.25C81.7634 19.3767 82.1734 19.5133 82.5934 19.66C83.0134 19.8 83.4234 19.9667 83.8234 20.16C84.2234 20.3467 84.58 20.5867 84.8934 20.88C85.2067 21.1667 85.4567 21.52 85.6434 21.94C85.8367 22.36 85.9334 22.87 85.9334 23.47C85.9334 24.1233 85.82 24.7367 85.5934 25.31C85.3734 25.8767 85.0467 26.3733 84.6134 26.8C84.1867 27.22 83.6634 27.5533 83.0434 27.8C82.4234 28.04 81.7134 28.16 80.9134 28.16C80.4534 28.16 80 28.1133 79.5534 28.02C79.1067 27.9333 78.6767 27.8067 78.2634 27.64C77.8567 27.4733 77.4734 27.2733 77.1134 27.04C76.7534 26.8067 76.4334 26.5467 76.1534 26.26L76.9434 24.97C77.01 24.8767 77.0967 24.8 77.2034 24.74C77.31 24.6733 77.4234 24.64 77.5434 24.64C77.71 24.64 77.89 24.71 78.0834 24.85C78.2767 24.9833 78.5067 25.1333 78.7734 25.3C79.04 25.4667 79.35 25.62 79.7034 25.76C80.0634 25.8933 80.4934 25.96 80.9934 25.96C81.76 25.96 82.3534 25.78 82.7734 25.42C83.1934 25.0533 83.4034 24.53 83.4034 23.85C83.4034 23.47 83.3067 23.16 83.1134 22.92C82.9267 22.68 82.6767 22.48 82.3634 22.32C82.05 22.1533 81.6934 22.0133 81.2934 21.9C80.8934 21.7867 80.4867 21.6633 80.0734 21.53C79.66 21.3967 79.2534 21.2367 78.8534 21.05C78.4534 20.8633 78.0967 20.62 77.7834 20.32C77.47 20.02 77.2167 19.6467 77.0234 19.2C76.8367 18.7467 76.7434 18.19 76.7434 17.53C76.7434 17.0033 76.8467 16.49 77.0534 15.99C77.2667 15.49 77.5734 15.0467 77.9734 14.66C78.3734 14.2733 78.8667 13.9633 79.4534 13.73C80.04 13.4967 80.7134 13.38 81.4734 13.38C82.3267 13.38 83.1134 13.5133 83.8334 13.78C84.5534 14.0467 85.1667 14.42 85.6734 14.9L85.0034 16.17ZM98.3799 15.75L94.0199 15.75L94.0199 28L91.3299 28L91.3299 15.75L86.9699 15.75L86.9699 13.54L98.3799 13.54L98.3799 15.75Z" fill="white"/>
<defs>
<linearGradient id="paint0_linear_510_5435" x1="274.432" y1="77.3408" x2="261.676" y2="25.1346" gradientUnits="userSpaceOnUse">
<stop stop-color="#656565"/>
<stop offset="1" stop-color="#010C12"/>
</linearGradient>
</defs>
</svg>
