<svg width="150" height="41" viewBox="0 0 150 41" fill="none" xmlns="http://www.w3.org/2000/svg">
<path d="M67.84 20.77C67.84 21.83 67.6633 22.8033 67.31 23.69C66.9566 24.5767 66.46 25.34 65.82 25.98C65.18 26.62 64.41 27.1167 63.51 27.47C62.61 27.8233 61.61 28 60.51 28H55V13.54H60.51C61.61 13.54 62.61 13.72 63.51 14.08C64.41 14.4333 65.18 14.93 65.82 15.57C66.46 16.2033 66.9566 16.9633 67.31 17.85C67.6633 18.7367 67.84 19.71 67.84 20.77ZM65.08 20.77C65.08 19.9767 64.9733 19.2667 64.76 18.64C64.5533 18.0067 64.25 17.4733 63.85 17.04C63.4566 16.6 62.9766 16.2633 62.41 16.03C61.85 15.7967 61.2166 15.68 60.51 15.68H57.7V25.86H60.51C61.2166 25.86 61.85 25.7433 62.41 25.51C62.9766 25.2767 63.4566 24.9433 63.85 24.51C64.25 24.07 64.5533 23.5367 64.76 22.91C64.9733 22.2767 65.08 21.5633 65.08 20.77ZM76.0348 25.83C76.5548 25.83 77.0182 25.7433 77.4248 25.57C77.8382 25.3967 78.1848 25.1533 78.4648 24.84C78.7448 24.5267 78.9582 24.1467 79.1048 23.7C79.2582 23.2533 79.3348 22.7533 79.3348 22.2V13.54H82.0248V22.2C82.0248 23.06 81.8848 23.8567 81.6048 24.59C81.3315 25.3167 80.9348 25.9467 80.4148 26.48C79.9015 27.0067 79.2748 27.42 78.5348 27.72C77.7948 28.0133 76.9615 28.16 76.0348 28.16C75.1015 28.16 74.2648 28.0133 73.5248 27.72C72.7848 27.42 72.1548 27.0067 71.6348 26.48C71.1215 25.9467 70.7248 25.3167 70.4448 24.59C70.1715 23.8567 70.0348 23.06 70.0348 22.2V13.54H72.7248V22.19C72.7248 22.7433 72.7982 23.2433 72.9448 23.69C73.0982 24.1367 73.3148 24.52 73.5948 24.84C73.8815 25.1533 74.2282 25.3967 74.6348 25.57C75.0482 25.7433 75.5148 25.83 76.0348 25.83ZM90.4686 25.9C90.9686 25.9 91.3886 25.84 91.7286 25.72C92.0686 25.6 92.3386 25.44 92.5386 25.24C92.7452 25.04 92.8919 24.8067 92.9786 24.54C93.0719 24.2733 93.1186 23.99 93.1186 23.69C93.1186 23.3767 93.0686 23.0967 92.9686 22.85C92.8686 22.5967 92.7119 22.3833 92.4986 22.21C92.2852 22.03 92.0086 21.8933 91.6686 21.8C91.3352 21.7067 90.9319 21.66 90.4586 21.66H87.7486V25.9H90.4686ZM87.7486 15.62V19.8H89.8886C90.8086 19.8 91.5019 19.6333 91.9686 19.3C92.4419 18.9667 92.6786 18.4367 92.6786 17.71C92.6786 16.9567 92.4652 16.42 92.0386 16.1C91.6119 15.78 90.9452 15.62 90.0386 15.62H87.7486ZM90.0386 13.54C90.9852 13.54 91.7952 13.63 92.4686 13.81C93.1419 13.99 93.6919 14.2467 94.1186 14.58C94.5519 14.9133 94.8686 15.3167 95.0686 15.79C95.2686 16.2633 95.3686 16.7967 95.3686 17.39C95.3686 17.73 95.3186 18.0567 95.2186 18.37C95.1186 18.6767 94.9619 18.9667 94.7486 19.24C94.5419 19.5067 94.2752 19.75 93.9486 19.97C93.6286 20.19 93.2452 20.3767 92.7986 20.53C94.7852 20.9767 95.7786 22.05 95.7786 23.75C95.7786 24.3633 95.6619 24.93 95.4286 25.45C95.1952 25.97 94.8552 26.42 94.4086 26.8C93.9619 27.1733 93.4119 27.4667 92.7586 27.68C92.1052 27.8933 91.3586 28 90.5186 28H85.0586V13.54H90.0386Z" fill="white"/>
<rect x="0.5" y="0.5" width="149" height="40" rx="20" stroke="white"/>
</svg>
