<svg width="150" height="41" viewBox="0 0 150 41" fill="none" xmlns="http://www.w3.org/2000/svg">
<path d="M2 39L148 39V2L2 2V39Z" fill="#622A00"/>
<path d="M60.3595 14.5299C60.3595 14.8366 60.2728 15.1166 60.0995 15.3699L52.6795 25.8499H60.1895V27.9999H49.1895V26.9399C49.1895 26.8066 49.2128 26.6799 49.2595 26.5599C49.3061 26.4332 49.3661 26.3166 49.4395 26.2099L56.8795 15.6799H49.6595V13.5399H60.3595V14.5299ZM65.2088 15.6799V19.6899H70.2688V21.7599H65.2088V25.8499H71.6288V27.9999H62.5088V13.5399H71.6288V15.6799H65.2088ZM78.3827 20.4199C78.8894 20.4199 79.3294 20.3566 79.7027 20.2299C80.0827 20.1032 80.3927 19.9299 80.6327 19.7099C80.8794 19.4832 81.0627 19.2166 81.1827 18.9099C81.3027 18.6032 81.3627 18.2666 81.3627 17.8999C81.3627 17.1666 81.1194 16.6032 80.6327 16.2099C80.1527 15.8166 79.4161 15.6199 78.4227 15.6199H76.7027V20.4199H78.3827ZM85.3027 27.9999H82.8727C82.4127 27.9999 82.0794 27.8199 81.8727 27.4599L78.8327 22.8299C78.7194 22.6566 78.5927 22.5332 78.4527 22.4599C78.3194 22.3866 78.1194 22.3499 77.8527 22.3499H76.7027V27.9999H74.0127V13.5399H78.4227C79.4027 13.5399 80.2427 13.6432 80.9427 13.8499C81.6494 14.0499 82.2261 14.3332 82.6727 14.6999C83.1261 15.0666 83.4594 15.5066 83.6727 16.0199C83.8861 16.5266 83.9927 17.0866 83.9927 17.6999C83.9927 18.1866 83.9194 18.6466 83.7727 19.0799C83.6327 19.5132 83.4261 19.9066 83.1527 20.2599C82.8861 20.6132 82.5527 20.9232 82.1527 21.1899C81.7594 21.4566 81.3094 21.6666 80.8027 21.8199C80.9761 21.9199 81.1361 22.0399 81.2827 22.1799C81.4294 22.3132 81.5627 22.4732 81.6827 22.6599L85.3027 27.9999ZM100.459 20.7699C100.459 21.8299 100.282 22.8132 99.929 23.7199C99.5823 24.6199 99.089 25.3999 98.449 26.0599C97.809 26.7199 97.039 27.2366 96.139 27.6099C95.239 27.9766 94.239 28.1599 93.139 28.1599C92.0457 28.1599 91.049 27.9766 90.149 27.6099C89.249 27.2366 88.4757 26.7199 87.829 26.0599C87.189 25.3999 86.6923 24.6199 86.339 23.7199C85.9857 22.8132 85.809 21.8299 85.809 20.7699C85.809 19.7099 85.9857 18.7299 86.339 17.8299C86.6923 16.9232 87.189 16.1399 87.829 15.4799C88.4757 14.8199 89.249 14.3066 90.149 13.9399C91.049 13.5666 92.0457 13.3799 93.139 13.3799C93.8723 13.3799 94.5623 13.4666 95.209 13.6399C95.8557 13.8066 96.449 14.0466 96.989 14.3599C97.529 14.6666 98.0123 15.0432 98.439 15.4899C98.8723 15.9299 99.239 16.4232 99.539 16.9699C99.839 17.5166 100.065 18.1099 100.219 18.7499C100.379 19.3899 100.459 20.0632 100.459 20.7699ZM97.709 20.7699C97.709 19.9766 97.6023 19.2666 97.389 18.6399C97.1757 18.0066 96.8723 17.4699 96.479 17.0299C96.0857 16.5899 95.6057 16.2532 95.039 16.0199C94.479 15.7866 93.8457 15.6699 93.139 15.6699C92.4323 15.6699 91.7957 15.7866 91.229 16.0199C90.669 16.2532 90.189 16.5899 89.789 17.0299C89.3957 17.4699 89.0923 18.0066 88.879 18.6399C88.6657 19.2666 88.559 19.9766 88.559 20.7699C88.559 21.5632 88.6657 22.2766 88.879 22.9099C89.0923 23.5366 89.3957 24.0699 89.789 24.5099C90.189 24.9432 90.669 25.2766 91.229 25.5099C91.7957 25.7432 92.4323 25.8599 93.139 25.8599C93.8457 25.8599 94.479 25.7432 95.039 25.5099C95.6057 25.2766 96.0857 24.9432 96.479 24.5099C96.8723 24.0699 97.1757 23.5366 97.389 22.9099C97.6023 22.2766 97.709 21.5632 97.709 20.7699Z" fill="white"/>
</svg>
