<svg width="150" height="41" viewBox="0 0 150 41" fill="none" xmlns="http://www.w3.org/2000/svg">
<path d="M60.3575 14.5299C60.3575 14.8366 60.2708 15.1166 60.0975 15.3699L52.6775 25.8499H60.1875V27.9999H49.1875V26.9399C49.1875 26.8066 49.2108 26.6799 49.2575 26.5599C49.3041 26.4332 49.3641 26.3166 49.4375 26.2099L56.8775 15.6799H49.6575V13.5399H60.3575V14.5299ZM65.2068 15.6799V19.6899H70.2668V21.7599H65.2068V25.8499H71.6268V27.9999H62.5068V13.5399H71.6268V15.6799H65.2068ZM78.3807 20.4199C78.8874 20.4199 79.3274 20.3566 79.7007 20.2299C80.0807 20.1032 80.3907 19.9299 80.6307 19.7099C80.8774 19.4832 81.0607 19.2166 81.1807 18.9099C81.3007 18.6032 81.3607 18.2666 81.3607 17.8999C81.3607 17.1666 81.1174 16.6032 80.6307 16.2099C80.1507 15.8166 79.4141 15.6199 78.4207 15.6199H76.7007V20.4199H78.3807ZM85.3007 27.9999H82.8707C82.4107 27.9999 82.0774 27.8199 81.8707 27.4599L78.8307 22.8299C78.7174 22.6566 78.5907 22.5332 78.4507 22.4599C78.3174 22.3866 78.1174 22.3499 77.8507 22.3499H76.7007V27.9999H74.0107V13.5399H78.4207C79.4007 13.5399 80.2407 13.6432 80.9407 13.8499C81.6474 14.0499 82.2241 14.3332 82.6707 14.6999C83.1241 15.0666 83.4574 15.5066 83.6707 16.0199C83.8841 16.5266 83.9907 17.0866 83.9907 17.6999C83.9907 18.1866 83.9174 18.6466 83.7707 19.0799C83.6307 19.5132 83.4241 19.9066 83.1507 20.2599C82.8841 20.6132 82.5507 20.9232 82.1507 21.1899C81.7574 21.4566 81.3074 21.6666 80.8007 21.8199C80.9741 21.9199 81.1341 22.0399 81.2807 22.1799C81.4274 22.3132 81.5607 22.4732 81.6807 22.6599L85.3007 27.9999ZM100.457 20.7699C100.457 21.8299 100.28 22.8132 99.927 23.7199C99.5803 24.6199 99.087 25.3999 98.447 26.0599C97.807 26.7199 97.037 27.2366 96.137 27.6099C95.237 27.9766 94.237 28.1599 93.137 28.1599C92.0437 28.1599 91.047 27.9766 90.147 27.6099C89.247 27.2366 88.4737 26.7199 87.827 26.0599C87.187 25.3999 86.6903 24.6199 86.337 23.7199C85.9837 22.8132 85.807 21.8299 85.807 20.7699C85.807 19.7099 85.9837 18.7299 86.337 17.8299C86.6903 16.9232 87.187 16.1399 87.827 15.4799C88.4737 14.8199 89.247 14.3066 90.147 13.9399C91.047 13.5666 92.0437 13.3799 93.137 13.3799C93.8703 13.3799 94.5603 13.4666 95.207 13.6399C95.8537 13.8066 96.447 14.0466 96.987 14.3599C97.527 14.6666 98.0103 15.0432 98.437 15.4899C98.8703 15.9299 99.237 16.4232 99.537 16.9699C99.837 17.5166 100.063 18.1099 100.217 18.7499C100.377 19.3899 100.457 20.0632 100.457 20.7699ZM97.707 20.7699C97.707 19.9766 97.6003 19.2666 97.387 18.6399C97.1737 18.0066 96.8703 17.4699 96.477 17.0299C96.0837 16.5899 95.6037 16.2532 95.037 16.0199C94.477 15.7866 93.8437 15.6699 93.137 15.6699C92.4303 15.6699 91.7937 15.7866 91.227 16.0199C90.667 16.2532 90.187 16.5899 89.787 17.0299C89.3937 17.4699 89.0903 18.0066 88.877 18.6399C88.6637 19.2666 88.557 19.9766 88.557 20.7699C88.557 21.5632 88.6637 22.2766 88.877 22.9099C89.0903 23.5366 89.3937 24.0699 89.787 24.5099C90.187 24.9432 90.667 25.2766 91.227 25.5099C91.7937 25.7432 92.4303 25.8599 93.137 25.8599C93.8437 25.8599 94.477 25.7432 95.037 25.5099C95.6037 25.2766 96.0837 24.9432 96.477 24.5099C96.8703 24.0699 97.1737 23.5366 97.387 22.9099C97.6003 22.2766 97.707 21.5632 97.707 20.7699Z" fill="white"/>
<rect x="0.5" y="0.5" width="149" height="40" stroke="white"/>
</svg>
