<svg width="150" height="41" viewBox="0 0 150 41" fill="none" xmlns="http://www.w3.org/2000/svg">
<path d="M48.9598 20.4199C49.4665 20.4199 49.9065 20.3566 50.2798 20.2299C50.6598 20.1032 50.9698 19.9299 51.2098 19.7099C51.4565 19.4832 51.6398 19.2166 51.7598 18.9099C51.8798 18.6032 51.9398 18.2666 51.9398 17.8999C51.9398 17.1666 51.6965 16.6032 51.2098 16.2099C50.7298 15.8166 49.9932 15.6199 48.9998 15.6199H47.2798V20.4199H48.9598ZM55.8798 27.9999H53.4498C52.9898 27.9999 52.6565 27.8199 52.4498 27.4599L49.4098 22.8299C49.2965 22.6566 49.1698 22.5332 49.0298 22.4599C48.8965 22.3866 48.6965 22.3499 48.4298 22.3499H47.2798V27.9999H44.5898V13.5399H48.9998C49.9798 13.5399 50.8198 13.6432 51.5198 13.8499C52.2265 14.0499 52.8032 14.3332 53.2498 14.6999C53.7032 15.0666 54.0365 15.5066 54.2498 16.0199C54.4632 16.5266 54.5698 17.0866 54.5698 17.6999C54.5698 18.1866 54.4965 18.6466 54.3498 19.0799C54.2098 19.5132 54.0032 19.9066 53.7298 20.2599C53.4632 20.6132 53.1298 20.9232 52.7298 21.1899C52.3365 21.4566 51.8865 21.6666 51.3798 21.8199C51.5532 21.9199 51.7132 22.0399 51.8598 22.1799C52.0065 22.3132 52.1398 22.4732 52.2598 22.6599L55.8798 27.9999ZM65.0814 22.5399L63.3214 17.7299C63.2347 17.5166 63.1447 17.2632 63.0514 16.9699C62.958 16.6766 62.8647 16.3599 62.7714 16.0199C62.6847 16.3599 62.5947 16.6799 62.5014 16.9799C62.408 17.2732 62.318 17.5299 62.2314 17.7499L60.4814 22.5399H65.0814ZM69.8314 27.9999H67.7514C67.518 27.9999 67.328 27.9432 67.1814 27.8299C67.0347 27.7099 66.9247 27.5632 66.8514 27.3899L65.7714 24.4399H59.7814L58.7014 27.3899C58.648 27.5432 58.5447 27.6832 58.3914 27.8099C58.238 27.9366 58.048 27.9999 57.8214 27.9999H55.7214L61.4114 13.5399H64.1514L69.8314 27.9999ZM84.1681 20.7699C84.1681 21.8299 83.9914 22.8032 83.6381 23.6899C83.2848 24.5766 82.7881 25.3399 82.1481 25.9799C81.5081 26.6199 80.7381 27.1166 79.8381 27.4699C78.9381 27.8232 77.9381 27.9999 76.8381 27.9999H71.3281V13.5399H76.8381C77.9381 13.5399 78.9381 13.7199 79.8381 14.0799C80.7381 14.4332 81.5081 14.9299 82.1481 15.5699C82.7881 16.2032 83.2848 16.9632 83.6381 17.8499C83.9914 18.7366 84.1681 19.7099 84.1681 20.7699ZM81.4081 20.7699C81.4081 19.9766 81.3014 19.2666 81.0881 18.6399C80.8814 18.0066 80.5781 17.4732 80.1781 17.0399C79.7848 16.5999 79.3048 16.2632 78.7381 16.0299C78.1781 15.7966 77.5448 15.6799 76.8381 15.6799H74.0281V25.8599H76.8381C77.5448 25.8599 78.1781 25.7432 78.7381 25.5099C79.3048 25.2766 79.7848 24.9432 80.1781 24.5099C80.5781 24.0699 80.8814 23.5366 81.0881 22.9099C81.3014 22.2766 81.4081 21.5632 81.4081 20.7699ZM89.2429 27.9999H86.5429V13.5399H89.2429V27.9999ZM106.27 20.7699C106.27 21.8299 106.093 22.8132 105.74 23.7199C105.393 24.6199 104.9 25.3999 104.26 26.0599C103.62 26.7199 102.85 27.2366 101.95 27.6099C101.05 27.9766 100.05 28.1599 98.9504 28.1599C97.8571 28.1599 96.8604 27.9766 95.9604 27.6099C95.0604 27.2366 94.2871 26.7199 93.6404 26.0599C93.0004 25.3999 92.5038 24.6199 92.1504 23.7199C91.7971 22.8132 91.6204 21.8299 91.6204 20.7699C91.6204 19.7099 91.7971 18.7299 92.1504 17.8299C92.5038 16.9232 93.0004 16.1399 93.6404 15.4799C94.2871 14.8199 95.0604 14.3066 95.9604 13.9399C96.8604 13.5666 97.8571 13.3799 98.9504 13.3799C99.6838 13.3799 100.373 13.4666 101.02 13.6399C101.667 13.8066 102.26 14.0466 102.8 14.3599C103.34 14.6666 103.823 15.0432 104.25 15.4899C104.683 15.9299 105.05 16.4232 105.35 16.9699C105.65 17.5166 105.877 18.1099 106.03 18.7499C106.19 19.3899 106.27 20.0632 106.27 20.7699ZM103.52 20.7699C103.52 19.9766 103.413 19.2666 103.2 18.6399C102.987 18.0066 102.683 17.4699 102.29 17.0299C101.897 16.5899 101.417 16.2532 100.85 16.0199C100.29 15.7866 99.6571 15.6699 98.9504 15.6699C98.2438 15.6699 97.6071 15.7866 97.0404 16.0199C96.4804 16.2532 96.0004 16.5899 95.6004 17.0299C95.2071 17.4699 94.9038 18.0066 94.6904 18.6399C94.4771 19.2666 94.3704 19.9766 94.3704 20.7699C94.3704 21.5632 94.4771 22.2766 94.6904 22.9099C94.9038 23.5366 95.2071 24.0699 95.6004 24.5099C96.0004 24.9432 96.4804 25.2766 97.0404 25.5099C97.6071 25.7432 98.2438 25.8599 98.9504 25.8599C99.6571 25.8599 100.29 25.7432 100.85 25.5099C101.417 25.2766 101.897 24.9432 102.29 24.5099C102.683 24.0699 102.987 23.5366 103.2 22.9099C103.413 22.2766 103.52 21.5632 103.52 20.7699Z" fill="white"/>
<rect x="0.5" y="0.5" width="149" height="40" rx="20" stroke="white"/>
</svg>
