<svg width="150" height="41" viewBox="0 0 150 41" fill="none" xmlns="http://www.w3.org/2000/svg">
<path d="M129.5 38.5L20.5 38.5C10.5589 38.5 2.5 30.4411 2.5 20.5C2.5 10.5589 10.5589 2.5 20.5 2.5L129.5 2.5C139.441 2.5 147.5 10.5589 147.5 20.5C147.5 30.4411 139.441 38.5 129.5 38.5Z" stroke="white"/>
<path d="M52.6775 26.3499H59.6875V27.4999H49.6875V26.9399C49.6875 26.8662 49.7001 26.8012 49.7235 26.7412L49.7235 26.7412L49.7268 26.7325C49.7592 26.6444 49.7997 26.566 49.8479 26.4956L57.2859 15.9684L57.843 15.1799H56.8775H50.1575V14.0399H59.8575V14.5299C59.8575 14.7345 59.802 14.9152 59.6869 15.0845L52.2694 25.561L51.7109 26.3499H52.6775ZM65.2068 15.1799H64.7068V15.6799V19.6899V20.1899H65.2068H69.7668V21.2599H65.2068H64.7068V21.7599V25.8499V26.3499H65.2068H71.1268V27.4999H63.0068V14.0399H71.1268V15.1799H65.2068ZM78.3807 20.9199C78.9267 20.9199 79.423 20.852 79.8601 20.7038C80.2913 20.5599 80.6665 20.3553 80.9686 20.0785L80.969 20.078C81.2707 19.8008 81.4981 19.4709 81.6463 19.0921C81.7915 18.7211 81.8607 18.3219 81.8607 17.8999C81.8607 17.0452 81.5704 16.3271 80.9463 15.8221C80.3371 15.3237 79.464 15.1199 78.4207 15.1199H76.7007H76.2007V15.6199V20.4199V20.9199H76.7007H78.3807ZM81.2668 22.9404L84.3577 27.4999H82.8707C82.5663 27.4999 82.4108 27.3963 82.3043 27.2109L82.2969 27.198L82.2887 27.1855L79.2492 22.5563C79.2491 22.5561 79.249 22.556 79.2489 22.5558C79.1039 22.3342 78.9203 22.1426 78.687 22.0192C78.4442 21.8873 78.145 21.8499 77.8507 21.8499H76.7007H76.2007V22.3499V27.4999H74.5107V14.0399H78.4207C79.3681 14.0399 80.1578 14.14 80.7991 14.3294L80.7991 14.3294L80.8045 14.331C81.4623 14.5171 81.9724 14.7734 82.3534 15.0863L82.3563 15.0886C82.7482 15.4056 83.0292 15.7791 83.209 16.2118L83.2099 16.214C83.3946 16.6524 83.4907 17.1455 83.4907 17.6999C83.4907 18.1356 83.4252 18.5411 83.2971 18.9195L83.2971 18.9195L83.2949 18.9262C83.1723 19.3056 82.9925 19.6473 82.7553 19.9539L82.7552 19.9539L82.7516 19.9587C82.5217 20.2634 82.2307 20.5356 81.8733 20.7739L81.8701 20.7761C81.523 21.0114 81.1198 21.201 80.6559 21.3413L79.5501 21.6759L80.5509 22.253C80.6893 22.3328 80.8173 22.4287 80.9354 22.5415L80.9353 22.5416L80.9445 22.5499C81.0552 22.6505 81.1609 22.7759 81.2601 22.9302L81.26 22.9303L81.2668 22.9404ZM99.4611 23.5383L99.4604 23.5401C99.1367 24.3805 98.6789 25.1025 98.0881 25.7118C97.4987 26.3196 96.7872 26.7987 95.947 27.1474C95.1147 27.4863 94.1803 27.6599 93.137 27.6599C92.1008 27.6599 91.1697 27.4864 90.337 27.1474C89.4969 26.7987 88.7818 26.3196 88.1853 25.7112C87.5942 25.1013 87.1328 24.3787 86.8026 23.5376C86.474 22.6939 86.307 21.773 86.307 20.7699C86.307 19.7664 86.4741 18.849 86.8024 18.0126L86.8029 18.0114C87.1333 17.1634 87.5947 16.4379 88.1853 15.8286C88.7815 15.2205 89.4962 14.745 90.3357 14.4029L90.3386 14.4017C91.1709 14.0565 92.1014 13.8799 93.137 13.8799C93.8307 13.8799 94.4769 13.9619 95.0776 14.1228L95.0776 14.1229L95.0822 14.1241C95.6878 14.2802 96.2382 14.5035 96.7361 14.7924L96.7401 14.7947C97.238 15.0774 97.6826 15.424 98.0754 15.8352L98.0754 15.8353L98.0807 15.8407C98.4814 16.2476 98.8206 16.7037 99.0987 17.2104C99.376 17.7159 99.587 18.2673 99.7313 18.8669L99.7323 18.8712C99.8817 19.4688 99.9574 20.1012 99.9574 20.7699C99.9574 21.7732 99.7901 22.6944 99.4611 23.5383ZM91.0367 15.5575L91.0347 15.5583C90.4084 15.8193 89.8674 16.1982 89.417 16.6935L89.4142 16.6967C88.9704 17.1932 88.6354 17.791 88.4033 18.4798C88.1695 19.1672 88.057 19.9327 88.057 20.7699C88.057 21.6076 88.1696 22.3762 88.4032 23.0695L88.4037 23.071C88.636 23.7536 88.9711 24.3474 89.4142 24.8431L89.4142 24.8431L89.4196 24.849C89.8699 25.3368 90.4101 25.7112 91.0347 25.9714L91.0367 25.9722C91.6722 26.2339 92.3749 26.3599 93.137 26.3599C93.8985 26.3599 94.5983 26.2341 95.2281 25.9719C95.8598 25.7117 96.4019 25.3365 96.8472 24.8459L96.8498 24.8431C97.2929 24.3474 97.628 23.7536 97.8603 23.071L97.8609 23.0695C98.0944 22.3762 98.207 21.6076 98.207 20.7699C98.207 19.9326 98.0945 19.167 97.8606 18.4795C97.6285 17.7909 97.2936 17.1932 96.8498 16.6967C96.4045 16.1985 95.8616 15.8188 95.2283 15.5579C94.5985 15.2957 93.8986 15.1699 93.137 15.1699C92.3749 15.1699 91.6722 15.2959 91.0367 15.5575Z" stroke="white"/>
</svg>
